<?xml version="1.0" encoding="utf-8" standalone="no"?>
<!DOCTYPE svg PUBLIC "-//W3C//DTD SVG 1.1//EN"
  "http://www.w3.org/Graphics/SVG/1.1/DTD/svg11.dtd">
<svg xmlns:xlink="http://www.w3.org/1999/xlink" width="504pt" height="144pt" viewBox="0 0 504 144" xmlns="http://www.w3.org/2000/svg" version="1.1">
 <metadata>
  <rdf:RDF xmlns:dc="http://purl.org/dc/elements/1.1/" xmlns:cc="http://creativecommons.org/ns#" xmlns:rdf="http://www.w3.org/1999/02/22-rdf-syntax-ns#">
   <cc:Work>
    <dc:type rdf:resource="http://purl.org/dc/dcmitype/StillImage"/>
    <dc:date>2024-05-21T13:26:56.468831</dc:date>
    <dc:format>image/svg+xml</dc:format>
    <dc:creator>
     <cc:Agent>
      <dc:title>Matplotlib v3.7.2, https://matplotlib.org/</dc:title>
     </cc:Agent>
    </dc:creator>
   </cc:Work>
  </rdf:RDF>
 </metadata>
 <defs>
  <style type="text/css">*{stroke-linejoin: round; stroke-linecap: butt}</style>
 </defs>
 <g id="figure_1">
  <g id="patch_1">
   <path d="M 0 144 
L 504 144 
L 504 0 
L 0 0 
z
" style="fill: #ffffff"/>
  </g>
  <g id="axes_1">
   <g id="patch_2">
    <path d="M 56.291719 102.2 
L 167.283071 102.2 
L 167.283071 10.8 
L 56.291719 10.8 
z
" style="fill: #ffffff"/>
   </g>
   <g id="matplotlib.axis_1">
    <g id="xtick_1">
     <g id="line2d_1">
      <defs>
       <path id="m728724a8d7" d="M 0 0 
L 0 3.5 
" style="stroke: #000000; stroke-width: 0.8"/>
      </defs>
      <g>
       <use xlink:href="#m728724a8d7" x="61.33678" y="102.2" style="stroke: #000000; stroke-width: 0.8"/>
      </g>
     </g>
     <g id="text_1">
      <!-- 0 -->
      <g transform="translate(58.15553 116.798437) scale(0.1 -0.1)">
       <defs>
        <path id="DejaVuSans-30" d="M 2034 4250 
Q 1547 4250 1301 3770 
Q 1056 3291 1056 2328 
Q 1056 1369 1301 889 
Q 1547 409 2034 409 
Q 2525 409 2770 889 
Q 3016 1369 3016 2328 
Q 3016 3291 2770 3770 
Q 2525 4250 2034 4250 
z
M 2034 4750 
Q 2819 4750 3233 4129 
Q 3647 3509 3647 2328 
Q 3647 1150 3233 529 
Q 2819 -91 2034 -91 
Q 1250 -91 836 529 
Q 422 1150 422 2328 
Q 422 3509 836 4129 
Q 1250 4750 2034 4750 
z
" transform="scale(0.015625)"/>
       </defs>
       <use xlink:href="#DejaVuSans-30"/>
      </g>
     </g>
    </g>
    <g id="xtick_2">
     <g id="line2d_2">
      <g>
       <use xlink:href="#m728724a8d7" x="112.296997" y="102.2" style="stroke: #000000; stroke-width: 0.8"/>
      </g>
     </g>
     <g id="text_2">
      <!-- 500 -->
      <g transform="translate(102.753247 116.798437) scale(0.1 -0.1)">
       <defs>
        <path id="DejaVuSans-35" d="M 691 4666 
L 3169 4666 
L 3169 4134 
L 1269 4134 
L 1269 2991 
Q 1406 3038 1543 3061 
Q 1681 3084 1819 3084 
Q 2600 3084 3056 2656 
Q 3513 2228 3513 1497 
Q 3513 744 3044 326 
Q 2575 -91 1722 -91 
Q 1428 -91 1123 -41 
Q 819 9 494 109 
L 494 744 
Q 775 591 1075 516 
Q 1375 441 1709 441 
Q 2250 441 2565 725 
Q 2881 1009 2881 1497 
Q 2881 1984 2565 2268 
Q 2250 2553 1709 2553 
Q 1456 2553 1204 2497 
Q 953 2441 691 2322 
L 691 4666 
z
" transform="scale(0.015625)"/>
       </defs>
       <use xlink:href="#DejaVuSans-35"/>
       <use xlink:href="#DejaVuSans-30" x="63.623047"/>
       <use xlink:href="#DejaVuSans-30" x="127.246094"/>
      </g>
     </g>
    </g>
    <g id="xtick_3">
     <g id="line2d_3">
      <g>
       <use xlink:href="#m728724a8d7" x="163.257214" y="102.2" style="stroke: #000000; stroke-width: 0.8"/>
      </g>
     </g>
     <g id="text_3">
      <!-- 1000 -->
      <g transform="translate(150.532214 116.798437) scale(0.1 -0.1)">
       <defs>
        <path id="DejaVuSans-31" d="M 794 531 
L 1825 531 
L 1825 4091 
L 703 3866 
L 703 4441 
L 1819 4666 
L 2450 4666 
L 2450 531 
L 3481 531 
L 3481 0 
L 794 0 
L 794 531 
z
" transform="scale(0.015625)"/>
       </defs>
       <use xlink:href="#DejaVuSans-31"/>
       <use xlink:href="#DejaVuSans-30" x="63.623047"/>
       <use xlink:href="#DejaVuSans-30" x="127.246094"/>
       <use xlink:href="#DejaVuSans-30" x="190.869141"/>
      </g>
     </g>
    </g>
    <g id="text_4">
     <!-- Iterations -->
     <g transform="translate(87.974114 130.476562) scale(0.1 -0.1)">
      <defs>
       <path id="DejaVuSans-49" d="M 628 4666 
L 1259 4666 
L 1259 0 
L 628 0 
L 628 4666 
z
" transform="scale(0.015625)"/>
       <path id="DejaVuSans-74" d="M 1172 4494 
L 1172 3500 
L 2356 3500 
L 2356 3053 
L 1172 3053 
L 1172 1153 
Q 1172 725 1289 603 
Q 1406 481 1766 481 
L 2356 481 
L 2356 0 
L 1766 0 
Q 1100 0 847 248 
Q 594 497 594 1153 
L 594 3053 
L 172 3053 
L 172 3500 
L 594 3500 
L 594 4494 
L 1172 4494 
z
" transform="scale(0.015625)"/>
       <path id="DejaVuSans-65" d="M 3597 1894 
L 3597 1613 
L 953 1613 
Q 991 1019 1311 708 
Q 1631 397 2203 397 
Q 2534 397 2845 478 
Q 3156 559 3463 722 
L 3463 178 
Q 3153 47 2828 -22 
Q 2503 -91 2169 -91 
Q 1331 -91 842 396 
Q 353 884 353 1716 
Q 353 2575 817 3079 
Q 1281 3584 2069 3584 
Q 2775 3584 3186 3129 
Q 3597 2675 3597 1894 
z
M 3022 2063 
Q 3016 2534 2758 2815 
Q 2500 3097 2075 3097 
Q 1594 3097 1305 2825 
Q 1016 2553 972 2059 
L 3022 2063 
z
" transform="scale(0.015625)"/>
       <path id="DejaVuSans-72" d="M 2631 2963 
Q 2534 3019 2420 3045 
Q 2306 3072 2169 3072 
Q 1681 3072 1420 2755 
Q 1159 2438 1159 1844 
L 1159 0 
L 581 0 
L 581 3500 
L 1159 3500 
L 1159 2956 
Q 1341 3275 1631 3429 
Q 1922 3584 2338 3584 
Q 2397 3584 2469 3576 
Q 2541 3569 2628 3553 
L 2631 2963 
z
" transform="scale(0.015625)"/>
       <path id="DejaVuSans-61" d="M 2194 1759 
Q 1497 1759 1228 1600 
Q 959 1441 959 1056 
Q 959 750 1161 570 
Q 1363 391 1709 391 
Q 2188 391 2477 730 
Q 2766 1069 2766 1631 
L 2766 1759 
L 2194 1759 
z
M 3341 1997 
L 3341 0 
L 2766 0 
L 2766 531 
Q 2569 213 2275 61 
Q 1981 -91 1556 -91 
Q 1019 -91 701 211 
Q 384 513 384 1019 
Q 384 1609 779 1909 
Q 1175 2209 1959 2209 
L 2766 2209 
L 2766 2266 
Q 2766 2663 2505 2880 
Q 2244 3097 1772 3097 
Q 1472 3097 1187 3025 
Q 903 2953 641 2809 
L 641 3341 
Q 956 3463 1253 3523 
Q 1550 3584 1831 3584 
Q 2591 3584 2966 3190 
Q 3341 2797 3341 1997 
z
" transform="scale(0.015625)"/>
       <path id="DejaVuSans-69" d="M 603 3500 
L 1178 3500 
L 1178 0 
L 603 0 
L 603 3500 
z
M 603 4863 
L 1178 4863 
L 1178 4134 
L 603 4134 
L 603 4863 
z
" transform="scale(0.015625)"/>
       <path id="DejaVuSans-6f" d="M 1959 3097 
Q 1497 3097 1228 2736 
Q 959 2375 959 1747 
Q 959 1119 1226 758 
Q 1494 397 1959 397 
Q 2419 397 2687 759 
Q 2956 1122 2956 1747 
Q 2956 2369 2687 2733 
Q 2419 3097 1959 3097 
z
M 1959 3584 
Q 2709 3584 3137 3096 
Q 3566 2609 3566 1747 
Q 3566 888 3137 398 
Q 2709 -91 1959 -91 
Q 1206 -91 779 398 
Q 353 888 353 1747 
Q 353 2609 779 3096 
Q 1206 3584 1959 3584 
z
" transform="scale(0.015625)"/>
       <path id="DejaVuSans-6e" d="M 3513 2113 
L 3513 0 
L 2938 0 
L 2938 2094 
Q 2938 2591 2744 2837 
Q 2550 3084 2163 3084 
Q 1697 3084 1428 2787 
Q 1159 2491 1159 1978 
L 1159 0 
L 581 0 
L 581 3500 
L 1159 3500 
L 1159 2956 
Q 1366 3272 1645 3428 
Q 1925 3584 2291 3584 
Q 2894 3584 3203 3211 
Q 3513 2838 3513 2113 
z
" transform="scale(0.015625)"/>
       <path id="DejaVuSans-73" d="M 2834 3397 
L 2834 2853 
Q 2591 2978 2328 3040 
Q 2066 3103 1784 3103 
Q 1356 3103 1142 2972 
Q 928 2841 928 2578 
Q 928 2378 1081 2264 
Q 1234 2150 1697 2047 
L 1894 2003 
Q 2506 1872 2764 1633 
Q 3022 1394 3022 966 
Q 3022 478 2636 193 
Q 2250 -91 1575 -91 
Q 1294 -91 989 -36 
Q 684 19 347 128 
L 347 722 
Q 666 556 975 473 
Q 1284 391 1588 391 
Q 1994 391 2212 530 
Q 2431 669 2431 922 
Q 2431 1156 2273 1281 
Q 2116 1406 1581 1522 
L 1381 1569 
Q 847 1681 609 1914 
Q 372 2147 372 2553 
Q 372 3047 722 3315 
Q 1072 3584 1716 3584 
Q 2034 3584 2315 3537 
Q 2597 3491 2834 3397 
z
" transform="scale(0.015625)"/>
      </defs>
      <use xlink:href="#DejaVuSans-49"/>
      <use xlink:href="#DejaVuSans-74" x="29.492188"/>
      <use xlink:href="#DejaVuSans-65" x="68.701172"/>
      <use xlink:href="#DejaVuSans-72" x="130.224609"/>
      <use xlink:href="#DejaVuSans-61" x="171.337891"/>
      <use xlink:href="#DejaVuSans-74" x="232.617188"/>
      <use xlink:href="#DejaVuSans-69" x="271.826172"/>
      <use xlink:href="#DejaVuSans-6f" x="299.609375"/>
      <use xlink:href="#DejaVuSans-6e" x="360.791016"/>
      <use xlink:href="#DejaVuSans-73" x="424.169922"/>
     </g>
    </g>
   </g>
   <g id="matplotlib.axis_2">
    <g id="ytick_1">
     <g id="line2d_4">
      <defs>
       <path id="m18d747a177" d="M 0 0 
L -3.5 0 
" style="stroke: #000000; stroke-width: 0.8"/>
      </defs>
      <g>
       <use xlink:href="#m18d747a177" x="56.291719" y="86.439159" style="stroke: #000000; stroke-width: 0.8"/>
      </g>
     </g>
     <g id="text_5">
      <!-- $\mathdefault{10^{-2}}$ -->
      <g transform="translate(25.791719 90.238378) scale(0.1 -0.1)">
       <defs>
        <path id="DejaVuSans-2212" d="M 678 2272 
L 4684 2272 
L 4684 1741 
L 678 1741 
L 678 2272 
z
" transform="scale(0.015625)"/>
        <path id="DejaVuSans-32" d="M 1228 531 
L 3431 531 
L 3431 0 
L 469 0 
L 469 531 
Q 828 903 1448 1529 
Q 2069 2156 2228 2338 
Q 2531 2678 2651 2914 
Q 2772 3150 2772 3378 
Q 2772 3750 2511 3984 
Q 2250 4219 1831 4219 
Q 1534 4219 1204 4116 
Q 875 4013 500 3803 
L 500 4441 
Q 881 4594 1212 4672 
Q 1544 4750 1819 4750 
Q 2544 4750 2975 4387 
Q 3406 4025 3406 3419 
Q 3406 3131 3298 2873 
Q 3191 2616 2906 2266 
Q 2828 2175 2409 1742 
Q 1991 1309 1228 531 
z
" transform="scale(0.015625)"/>
       </defs>
       <use xlink:href="#DejaVuSans-31" transform="translate(0 0.765625)"/>
       <use xlink:href="#DejaVuSans-30" transform="translate(63.623047 0.765625)"/>
       <use xlink:href="#DejaVuSans-2212" transform="translate(128.203125 39.046875) scale(0.7)"/>
       <use xlink:href="#DejaVuSans-32" transform="translate(186.855469 39.046875) scale(0.7)"/>
      </g>
     </g>
    </g>
    <g id="ytick_2">
     <g id="line2d_5">
      <g>
       <use xlink:href="#m18d747a177" x="56.291719" y="61.117519" style="stroke: #000000; stroke-width: 0.8"/>
      </g>
     </g>
     <g id="text_6">
      <!-- $\mathdefault{10^{-1}}$ -->
      <g transform="translate(25.791719 64.916737) scale(0.1 -0.1)">
       <use xlink:href="#DejaVuSans-31" transform="translate(0 0.684375)"/>
       <use xlink:href="#DejaVuSans-30" transform="translate(63.623047 0.684375)"/>
       <use xlink:href="#DejaVuSans-2212" transform="translate(128.203125 38.965625) scale(0.7)"/>
       <use xlink:href="#DejaVuSans-31" transform="translate(186.855469 38.965625) scale(0.7)"/>
      </g>
     </g>
    </g>
    <g id="ytick_3">
     <g id="line2d_6">
      <g>
       <use xlink:href="#m18d747a177" x="56.291719" y="35.795878" style="stroke: #000000; stroke-width: 0.8"/>
      </g>
     </g>
     <g id="text_7">
      <!-- $\mathdefault{10^{0}}$ -->
      <g transform="translate(31.691719 39.595096) scale(0.1 -0.1)">
       <use xlink:href="#DejaVuSans-31" transform="translate(0 0.765625)"/>
       <use xlink:href="#DejaVuSans-30" transform="translate(63.623047 0.765625)"/>
       <use xlink:href="#DejaVuSans-30" transform="translate(128.203125 39.046875) scale(0.7)"/>
      </g>
     </g>
    </g>
    <g id="ytick_4">
     <g id="line2d_7">
      <defs>
       <path id="m378996e0f6" d="M 0 0 
L -2 0 
" style="stroke: #000000; stroke-width: 0.6"/>
      </defs>
      <g>
       <use xlink:href="#m378996e0f6" x="56.291719" y="99.679307" style="stroke: #000000; stroke-width: 0.6"/>
      </g>
     </g>
    </g>
    <g id="ytick_5">
     <g id="line2d_8">
      <g>
       <use xlink:href="#m378996e0f6" x="56.291719" y="96.515653" style="stroke: #000000; stroke-width: 0.6"/>
      </g>
     </g>
    </g>
    <g id="ytick_6">
     <g id="line2d_9">
      <g>
       <use xlink:href="#m378996e0f6" x="56.291719" y="94.061733" style="stroke: #000000; stroke-width: 0.6"/>
      </g>
     </g>
    </g>
    <g id="ytick_7">
     <g id="line2d_10">
      <g>
       <use xlink:href="#m378996e0f6" x="56.291719" y="92.056734" style="stroke: #000000; stroke-width: 0.6"/>
      </g>
     </g>
    </g>
    <g id="ytick_8">
     <g id="line2d_11">
      <g>
       <use xlink:href="#m378996e0f6" x="56.291719" y="90.361531" style="stroke: #000000; stroke-width: 0.6"/>
      </g>
     </g>
    </g>
    <g id="ytick_9">
     <g id="line2d_12">
      <g>
       <use xlink:href="#m378996e0f6" x="56.291719" y="88.89308" style="stroke: #000000; stroke-width: 0.6"/>
      </g>
     </g>
    </g>
    <g id="ytick_10">
     <g id="line2d_13">
      <g>
       <use xlink:href="#m378996e0f6" x="56.291719" y="87.597814" style="stroke: #000000; stroke-width: 0.6"/>
      </g>
     </g>
    </g>
    <g id="ytick_11">
     <g id="line2d_14">
      <g>
       <use xlink:href="#m378996e0f6" x="56.291719" y="78.816586" style="stroke: #000000; stroke-width: 0.6"/>
      </g>
     </g>
    </g>
    <g id="ytick_12">
     <g id="line2d_15">
      <g>
       <use xlink:href="#m378996e0f6" x="56.291719" y="74.357666" style="stroke: #000000; stroke-width: 0.6"/>
      </g>
     </g>
    </g>
    <g id="ytick_13">
     <g id="line2d_16">
      <g>
       <use xlink:href="#m378996e0f6" x="56.291719" y="71.194013" style="stroke: #000000; stroke-width: 0.6"/>
      </g>
     </g>
    </g>
    <g id="ytick_14">
     <g id="line2d_17">
      <g>
       <use xlink:href="#m378996e0f6" x="56.291719" y="68.740092" style="stroke: #000000; stroke-width: 0.6"/>
      </g>
     </g>
    </g>
    <g id="ytick_15">
     <g id="line2d_18">
      <g>
       <use xlink:href="#m378996e0f6" x="56.291719" y="66.735093" style="stroke: #000000; stroke-width: 0.6"/>
      </g>
     </g>
    </g>
    <g id="ytick_16">
     <g id="line2d_19">
      <g>
       <use xlink:href="#m378996e0f6" x="56.291719" y="65.03989" style="stroke: #000000; stroke-width: 0.6"/>
      </g>
     </g>
    </g>
    <g id="ytick_17">
     <g id="line2d_20">
      <g>
       <use xlink:href="#m378996e0f6" x="56.291719" y="63.571439" style="stroke: #000000; stroke-width: 0.6"/>
      </g>
     </g>
    </g>
    <g id="ytick_18">
     <g id="line2d_21">
      <g>
       <use xlink:href="#m378996e0f6" x="56.291719" y="62.276173" style="stroke: #000000; stroke-width: 0.6"/>
      </g>
     </g>
    </g>
    <g id="ytick_19">
     <g id="line2d_22">
      <g>
       <use xlink:href="#m378996e0f6" x="56.291719" y="53.494945" style="stroke: #000000; stroke-width: 0.6"/>
      </g>
     </g>
    </g>
    <g id="ytick_20">
     <g id="line2d_23">
      <g>
       <use xlink:href="#m378996e0f6" x="56.291719" y="49.036025" style="stroke: #000000; stroke-width: 0.6"/>
      </g>
     </g>
    </g>
    <g id="ytick_21">
     <g id="line2d_24">
      <g>
       <use xlink:href="#m378996e0f6" x="56.291719" y="45.872372" style="stroke: #000000; stroke-width: 0.6"/>
      </g>
     </g>
    </g>
    <g id="ytick_22">
     <g id="line2d_25">
      <g>
       <use xlink:href="#m378996e0f6" x="56.291719" y="43.418451" style="stroke: #000000; stroke-width: 0.6"/>
      </g>
     </g>
    </g>
    <g id="ytick_23">
     <g id="line2d_26">
      <g>
       <use xlink:href="#m378996e0f6" x="56.291719" y="41.413452" style="stroke: #000000; stroke-width: 0.6"/>
      </g>
     </g>
    </g>
    <g id="ytick_24">
     <g id="line2d_27">
      <g>
       <use xlink:href="#m378996e0f6" x="56.291719" y="39.718249" style="stroke: #000000; stroke-width: 0.6"/>
      </g>
     </g>
    </g>
    <g id="ytick_25">
     <g id="line2d_28">
      <g>
       <use xlink:href="#m378996e0f6" x="56.291719" y="38.249798" style="stroke: #000000; stroke-width: 0.6"/>
      </g>
     </g>
    </g>
    <g id="ytick_26">
     <g id="line2d_29">
      <g>
       <use xlink:href="#m378996e0f6" x="56.291719" y="36.954532" style="stroke: #000000; stroke-width: 0.6"/>
      </g>
     </g>
    </g>
    <g id="ytick_27">
     <g id="line2d_30">
      <g>
       <use xlink:href="#m378996e0f6" x="56.291719" y="28.173304" style="stroke: #000000; stroke-width: 0.6"/>
      </g>
     </g>
    </g>
    <g id="ytick_28">
     <g id="line2d_31">
      <g>
       <use xlink:href="#m378996e0f6" x="56.291719" y="23.714385" style="stroke: #000000; stroke-width: 0.6"/>
      </g>
     </g>
    </g>
    <g id="ytick_29">
     <g id="line2d_32">
      <g>
       <use xlink:href="#m378996e0f6" x="56.291719" y="20.550731" style="stroke: #000000; stroke-width: 0.6"/>
      </g>
     </g>
    </g>
    <g id="ytick_30">
     <g id="line2d_33">
      <g>
       <use xlink:href="#m378996e0f6" x="56.291719" y="18.09681" style="stroke: #000000; stroke-width: 0.6"/>
      </g>
     </g>
    </g>
    <g id="ytick_31">
     <g id="line2d_34">
      <g>
       <use xlink:href="#m378996e0f6" x="56.291719" y="16.091811" style="stroke: #000000; stroke-width: 0.6"/>
      </g>
     </g>
    </g>
    <g id="ytick_32">
     <g id="line2d_35">
      <g>
       <use xlink:href="#m378996e0f6" x="56.291719" y="14.396609" style="stroke: #000000; stroke-width: 0.6"/>
      </g>
     </g>
    </g>
    <g id="ytick_33">
     <g id="line2d_36">
      <g>
       <use xlink:href="#m378996e0f6" x="56.291719" y="12.928157" style="stroke: #000000; stroke-width: 0.6"/>
      </g>
     </g>
    </g>
    <g id="ytick_34">
     <g id="line2d_37">
      <g>
       <use xlink:href="#m378996e0f6" x="56.291719" y="11.632892" style="stroke: #000000; stroke-width: 0.6"/>
      </g>
     </g>
    </g>
    <g id="text_8">
     <!-- Weighted sum loss -->
     <g transform="translate(19.712031 103.649219) rotate(-90) scale(0.1 -0.1)">
      <defs>
       <path id="DejaVuSans-57" d="M 213 4666 
L 850 4666 
L 1831 722 
L 2809 4666 
L 3519 4666 
L 4500 722 
L 5478 4666 
L 6119 4666 
L 4947 0 
L 4153 0 
L 3169 4050 
L 2175 0 
L 1381 0 
L 213 4666 
z
" transform="scale(0.015625)"/>
       <path id="DejaVuSans-67" d="M 2906 1791 
Q 2906 2416 2648 2759 
Q 2391 3103 1925 3103 
Q 1463 3103 1205 2759 
Q 947 2416 947 1791 
Q 947 1169 1205 825 
Q 1463 481 1925 481 
Q 2391 481 2648 825 
Q 2906 1169 2906 1791 
z
M 3481 434 
Q 3481 -459 3084 -895 
Q 2688 -1331 1869 -1331 
Q 1566 -1331 1297 -1286 
Q 1028 -1241 775 -1147 
L 775 -588 
Q 1028 -725 1275 -790 
Q 1522 -856 1778 -856 
Q 2344 -856 2625 -561 
Q 2906 -266 2906 331 
L 2906 616 
Q 2728 306 2450 153 
Q 2172 0 1784 0 
Q 1141 0 747 490 
Q 353 981 353 1791 
Q 353 2603 747 3093 
Q 1141 3584 1784 3584 
Q 2172 3584 2450 3431 
Q 2728 3278 2906 2969 
L 2906 3500 
L 3481 3500 
L 3481 434 
z
" transform="scale(0.015625)"/>
       <path id="DejaVuSans-68" d="M 3513 2113 
L 3513 0 
L 2938 0 
L 2938 2094 
Q 2938 2591 2744 2837 
Q 2550 3084 2163 3084 
Q 1697 3084 1428 2787 
Q 1159 2491 1159 1978 
L 1159 0 
L 581 0 
L 581 4863 
L 1159 4863 
L 1159 2956 
Q 1366 3272 1645 3428 
Q 1925 3584 2291 3584 
Q 2894 3584 3203 3211 
Q 3513 2838 3513 2113 
z
" transform="scale(0.015625)"/>
       <path id="DejaVuSans-64" d="M 2906 2969 
L 2906 4863 
L 3481 4863 
L 3481 0 
L 2906 0 
L 2906 525 
Q 2725 213 2448 61 
Q 2172 -91 1784 -91 
Q 1150 -91 751 415 
Q 353 922 353 1747 
Q 353 2572 751 3078 
Q 1150 3584 1784 3584 
Q 2172 3584 2448 3432 
Q 2725 3281 2906 2969 
z
M 947 1747 
Q 947 1113 1208 752 
Q 1469 391 1925 391 
Q 2381 391 2643 752 
Q 2906 1113 2906 1747 
Q 2906 2381 2643 2742 
Q 2381 3103 1925 3103 
Q 1469 3103 1208 2742 
Q 947 2381 947 1747 
z
" transform="scale(0.015625)"/>
       <path id="DejaVuSans-20" transform="scale(0.015625)"/>
       <path id="DejaVuSans-75" d="M 544 1381 
L 544 3500 
L 1119 3500 
L 1119 1403 
Q 1119 906 1312 657 
Q 1506 409 1894 409 
Q 2359 409 2629 706 
Q 2900 1003 2900 1516 
L 2900 3500 
L 3475 3500 
L 3475 0 
L 2900 0 
L 2900 538 
Q 2691 219 2414 64 
Q 2138 -91 1772 -91 
Q 1169 -91 856 284 
Q 544 659 544 1381 
z
M 1991 3584 
L 1991 3584 
z
" transform="scale(0.015625)"/>
       <path id="DejaVuSans-6d" d="M 3328 2828 
Q 3544 3216 3844 3400 
Q 4144 3584 4550 3584 
Q 5097 3584 5394 3201 
Q 5691 2819 5691 2113 
L 5691 0 
L 5113 0 
L 5113 2094 
Q 5113 2597 4934 2840 
Q 4756 3084 4391 3084 
Q 3944 3084 3684 2787 
Q 3425 2491 3425 1978 
L 3425 0 
L 2847 0 
L 2847 2094 
Q 2847 2600 2669 2842 
Q 2491 3084 2119 3084 
Q 1678 3084 1418 2786 
Q 1159 2488 1159 1978 
L 1159 0 
L 581 0 
L 581 3500 
L 1159 3500 
L 1159 2956 
Q 1356 3278 1631 3431 
Q 1906 3584 2284 3584 
Q 2666 3584 2933 3390 
Q 3200 3197 3328 2828 
z
" transform="scale(0.015625)"/>
       <path id="DejaVuSans-6c" d="M 603 4863 
L 1178 4863 
L 1178 0 
L 603 0 
L 603 4863 
z
" transform="scale(0.015625)"/>
      </defs>
      <use xlink:href="#DejaVuSans-57"/>
      <use xlink:href="#DejaVuSans-65" x="93.001953"/>
      <use xlink:href="#DejaVuSans-69" x="154.525391"/>
      <use xlink:href="#DejaVuSans-67" x="182.308594"/>
      <use xlink:href="#DejaVuSans-68" x="245.785156"/>
      <use xlink:href="#DejaVuSans-74" x="309.164062"/>
      <use xlink:href="#DejaVuSans-65" x="348.373047"/>
      <use xlink:href="#DejaVuSans-64" x="409.896484"/>
      <use xlink:href="#DejaVuSans-20" x="473.373047"/>
      <use xlink:href="#DejaVuSans-73" x="505.160156"/>
      <use xlink:href="#DejaVuSans-75" x="557.259766"/>
      <use xlink:href="#DejaVuSans-6d" x="620.638672"/>
      <use xlink:href="#DejaVuSans-20" x="718.050781"/>
      <use xlink:href="#DejaVuSans-6c" x="749.837891"/>
      <use xlink:href="#DejaVuSans-6f" x="777.621094"/>
      <use xlink:href="#DejaVuSans-73" x="838.802734"/>
      <use xlink:href="#DejaVuSans-73" x="890.902344"/>
     </g>
    </g>
   </g>
   <g id="line2d_38">
    <path d="M 61.33678 18.493031 
L 62.355985 18.102793 
L 63.375189 18.254865 
L 64.394393 18.29587 
L 65.413598 18.410068 
L 66.432802 18.312692 
L 67.452006 18.269638 
L 68.471211 18.227479 
L 69.490415 17.940279 
L 70.509619 18.584326 
L 71.528824 18.805884 
L 72.548028 18.679522 
L 73.567232 19.171413 
L 74.586437 19.210593 
L 75.605641 19.831418 
L 76.624845 19.864039 
L 77.64405 22.706175 
L 78.663254 27.146461 
L 79.682458 30.333789 
L 80.701663 57.479427 
L 81.720867 64.785466 
L 82.740071 68.259619 
L 83.759276 69.93065 
L 84.77848 70.671831 
L 85.797684 71.196809 
L 86.816889 71.63202 
L 87.836093 71.757508 
L 88.855297 72.73422 
L 89.874502 73.282379 
L 90.893706 73.01651 
L 91.91291 74.264092 
L 92.932115 73.836873 
L 93.951319 74.576874 
L 94.970523 74.724737 
L 95.989728 75.076026 
L 97.008932 75.800628 
L 98.028136 76.354633 
L 99.047341 76.357718 
L 100.066545 76.501025 
L 101.085749 77.901702 
L 102.104954 76.972528 
L 103.124158 76.893085 
L 104.143362 77.482863 
L 105.162567 76.596611 
L 106.181771 78.06005 
L 107.200975 77.29115 
L 108.22018 78.114201 
L 109.239384 78.798416 
L 110.258588 77.744523 
L 111.277793 77.956405 
L 112.296997 78.013784 
L 113.316201 77.940378 
L 114.335406 79.462864 
L 115.35461 76.974286 
L 116.373814 79.562208 
L 117.393019 79.622396 
L 118.412223 79.453803 
L 119.431427 79.125662 
L 120.450632 80.997527 
L 121.469836 80.475533 
L 122.48904 81.143156 
L 123.508245 80.957645 
L 124.527449 82.444925 
L 125.546653 83.060449 
L 126.565858 83.229581 
L 127.585062 74.477914 
L 128.604266 72.056495 
L 129.623471 74.714742 
L 130.642675 69.384338 
L 131.661879 83.734453 
L 132.681084 80.023735 
L 133.700288 77.21097 
L 134.719492 82.540349 
L 135.738697 71.349119 
L 136.757901 83.377717 
L 137.777105 82.219943 
L 138.79631 82.320605 
L 139.815514 83.951472 
L 140.834718 82.785261 
L 141.853923 83.95065 
L 142.873127 82.439253 
L 143.892331 84.285515 
L 144.911536 84.68934 
L 145.93074 84.301877 
L 146.949944 84.634694 
L 147.969149 81.837397 
L 148.988353 84.957937 
L 150.007557 84.988209 
L 151.026762 82.610436 
L 152.045966 85.164558 
L 153.06517 84.767578 
L 154.084375 84.830137 
L 155.103579 86.373919 
L 156.122783 86.443651 
L 157.141988 86.629467 
L 158.161192 87.126845 
L 159.180396 87.364854 
L 160.199601 87.731859 
L 161.218805 86.722818 
L 162.23801 88.206163 
" clip-path="url(#p99dd250b8a)" style="fill: none; stroke: #0000ff; stroke-width: 1.5; stroke-linecap: square"/>
   </g>
   <g id="line2d_39">
    <path d="M 61.33678 16.912889 
L 62.355985 28.85987 
L 63.375189 64.328711 
L 64.394393 69.941875 
L 65.413598 70.446612 
L 66.432802 70.816949 
L 67.452006 70.908215 
L 68.471211 71.104933 
L 69.490415 71.28109 
L 70.509619 72.265311 
L 71.528824 72.749735 
L 72.548028 72.879094 
L 73.567232 73.803345 
L 74.586437 75.079556 
L 75.605641 78.659858 
L 76.624845 81.637586 
L 77.64405 81.964578 
L 78.663254 83.068512 
L 79.682458 84.536083 
L 80.701663 84.906633 
L 81.720867 86.080818 
L 82.740071 86.870635 
L 83.759276 86.1315 
L 84.77848 86.992732 
L 85.797684 86.494251 
L 86.816889 87.363773 
L 87.836093 87.983348 
L 88.855297 88.379151 
L 89.874502 87.178937 
L 90.893706 88.4223 
L 91.91291 89.965822 
L 92.932115 89.327683 
L 93.951319 89.009287 
L 94.970523 89.556394 
L 95.989728 89.623054 
L 97.008932 89.022235 
L 98.028136 89.138367 
L 99.047341 90.906744 
L 100.066545 90.892052 
L 101.085749 91.003554 
L 102.104954 90.835492 
L 103.124158 90.177525 
L 104.143362 90.228276 
L 105.162567 90.452302 
L 106.181771 91.534356 
L 107.200975 91.16229 
L 108.22018 92.016415 
L 109.239384 90.908084 
L 110.258588 90.993586 
L 111.277793 91.57743 
L 112.296997 91.814473 
L 113.316201 91.36739 
L 114.335406 91.688366 
L 115.35461 92.687201 
L 116.373814 92.789658 
L 117.393019 91.298139 
L 118.412223 91.778353 
L 119.431427 91.779821 
L 120.450632 92.148171 
L 121.469836 93.639829 
L 122.48904 93.468383 
L 123.508245 92.623151 
L 124.527449 94.599336 
L 125.546653 93.177045 
L 126.565858 93.942387 
L 127.585062 94.281175 
L 128.604266 94.039828 
L 129.623471 94.036671 
L 130.642675 93.386782 
L 131.661879 94.364664 
L 132.681084 95.256713 
L 133.700288 95.192522 
L 134.719492 95.054418 
L 135.738697 94.643882 
L 136.757901 94.83266 
L 137.777105 95.08037 
L 138.79631 93.760951 
L 139.815514 95.301327 
L 140.834718 94.460957 
L 141.853923 95.143377 
L 142.873127 95.285245 
L 143.892331 95.452141 
L 144.911536 95.964627 
L 145.93074 96.086093 
L 146.949944 94.487664 
L 147.969149 95.582342 
L 148.988353 97.033739 
L 150.007557 97.012825 
L 151.026762 95.649719 
L 152.045966 97.09686 
L 153.06517 97.410272 
L 154.084375 96.82396 
L 155.103579 97.206517 
L 156.122783 96.646034 
L 157.141988 97.369025 
L 158.161192 95.852671 
L 159.180396 96.832353 
L 160.199601 96.257632 
L 161.218805 97.923957 
L 162.23801 97.20428 
" clip-path="url(#p99dd250b8a)" style="fill: none; stroke: #ff0000; stroke-width: 1.5; stroke-linecap: square"/>
   </g>
   <g id="line2d_40">
    <path d="M 61.33678 21.057273 
L 62.355985 39.271705 
L 63.375189 57.946268 
L 64.394393 69.464099 
L 65.413598 69.980793 
L 66.432802 70.467815 
L 67.452006 70.802007 
L 68.471211 70.926658 
L 69.490415 70.870072 
L 70.509619 71.683542 
L 71.528824 71.781724 
L 72.548028 71.779231 
L 73.567232 72.925184 
L 74.586437 73.529234 
L 75.605641 73.766581 
L 76.624845 74.574748 
L 77.64405 75.309332 
L 78.663254 79.189409 
L 79.682458 80.558326 
L 80.701663 82.463587 
L 81.720867 81.703594 
L 82.740071 83.303341 
L 83.759276 85.216502 
L 84.77848 83.78717 
L 85.797684 84.266716 
L 86.816889 83.901426 
L 87.836093 84.780701 
L 88.855297 86.03092 
L 89.874502 86.051509 
L 90.893706 86.992217 
L 91.91291 86.717867 
L 92.932115 87.02542 
L 93.951319 87.283254 
L 94.970523 88.150427 
L 95.989728 88.007975 
L 97.008932 87.971076 
L 98.028136 88.795123 
L 99.047341 89.22133 
L 100.066545 90.063437 
L 101.085749 89.808931 
L 102.104954 89.156599 
L 103.124158 89.667145 
L 104.143362 89.578324 
L 105.162567 89.707611 
L 106.181771 90.100303 
L 107.200975 90.023745 
L 108.22018 90.115069 
L 109.239384 90.893589 
L 110.258588 89.909483 
L 111.277793 91.393942 
L 112.296997 90.960184 
L 113.316201 91.070721 
L 114.335406 91.097094 
L 115.35461 90.7358 
L 116.373814 90.883268 
L 117.393019 91.996352 
L 118.412223 91.329226 
L 119.431427 92.555397 
L 120.450632 92.329637 
L 121.469836 91.600721 
L 122.48904 91.921 
L 123.508245 92.763557 
L 124.527449 93.192917 
L 125.546653 91.4148 
L 126.565858 92.597913 
L 127.585062 93.725628 
L 128.604266 92.578928 
L 129.623471 93.296642 
L 130.642675 93.497874 
L 131.661879 93.439558 
L 132.681084 93.499369 
L 133.700288 92.851078 
L 134.719492 93.564961 
L 135.738697 93.23924 
L 136.757901 94.14036 
L 137.777105 93.666499 
L 138.79631 94.350618 
L 139.815514 93.799532 
L 140.834718 94.515997 
L 141.853923 94.895464 
L 142.873127 95.484146 
L 143.892331 95.490783 
L 144.911536 94.986503 
L 145.93074 95.268946 
L 146.949944 95.207746 
L 147.969149 94.278027 
L 148.988353 94.292323 
L 150.007557 94.448218 
L 151.026762 95.77509 
L 152.045966 96.48454 
L 153.06517 96.988689 
L 154.084375 96.231728 
L 155.103579 96.510074 
L 156.122783 96.517109 
L 157.141988 96.861315 
L 158.161192 97.501771 
L 159.180396 96.456561 
L 160.199601 97.222115 
L 161.218805 96.468421 
L 162.23801 98.045455 
" clip-path="url(#p99dd250b8a)" style="fill: none; stroke: #008000; stroke-width: 1.5; stroke-linecap: square"/>
   </g>
   <g id="line2d_41">
    <path d="M 61.33678 14.954545 
L 62.355985 15.653329 
L 63.375189 15.415562 
L 64.394393 15.467837 
L 65.413598 15.321231 
L 66.432802 15.174426 
L 67.452006 18.725789 
L 68.471211 19.049676 
L 69.490415 19.528224 
L 70.509619 23.994216 
L 71.528824 32.877987 
L 72.548028 63.730595 
L 73.567232 69.441481 
L 74.586437 70.431173 
L 75.605641 70.90707 
L 76.624845 71.967228 
L 77.64405 71.955371 
L 78.663254 72.348982 
L 79.682458 72.229115 
L 80.701663 72.670403 
L 81.720867 73.464111 
L 82.740071 72.648796 
L 83.759276 74.481023 
L 84.77848 75.16862 
L 85.797684 74.564253 
L 86.816889 76.465026 
L 87.836093 76.54809 
L 88.855297 77.028658 
L 89.874502 76.052761 
L 90.893706 77.671424 
L 91.91291 79.679999 
L 92.932115 78.369341 
L 93.951319 80.136181 
L 94.970523 77.553987 
L 95.989728 79.298305 
L 97.008932 77.467213 
L 98.028136 77.822914 
L 99.047341 73.310896 
L 100.066545 73.716862 
L 101.085749 73.562263 
L 102.104954 73.79651 
L 103.124158 72.88306 
L 104.143362 72.359968 
L 105.162567 72.156023 
L 106.181771 73.415957 
L 107.200975 73.26712 
L 108.22018 74.768797 
L 109.239384 72.699812 
L 110.258588 72.862447 
L 111.277793 72.620632 
L 112.296997 74.060956 
L 113.316201 72.983983 
L 114.335406 71.586938 
L 115.35461 72.448509 
L 116.373814 71.85301 
L 117.393019 71.941548 
L 118.412223 71.46586 
L 119.431427 71.127066 
L 120.450632 71.206595 
L 121.469836 70.829931 
L 122.48904 71.983699 
L 123.508245 70.973151 
L 124.527449 69.953055 
L 125.546653 72.027323 
L 126.565858 71.026854 
L 127.585062 71.374483 
L 128.604266 69.171855 
L 129.623471 70.432759 
L 130.642675 70.71814 
L 131.661879 69.801715 
L 132.681084 70.162643 
L 133.700288 70.248419 
L 134.719492 70.329645 
L 135.738697 69.773964 
L 136.757901 70.533108 
L 137.777105 68.884908 
L 138.79631 69.623356 
L 139.815514 70.680212 
L 140.834718 68.845333 
L 141.853923 69.034415 
L 142.873127 69.875709 
L 143.892331 68.590637 
L 144.911536 68.852034 
L 145.93074 69.421965 
L 146.949944 68.485581 
L 147.969149 67.308219 
L 148.988353 67.265344 
L 150.007557 67.84842 
L 151.026762 66.206279 
L 152.045966 65.731916 
L 153.06517 64.488118 
L 154.084375 64.523297 
L 155.103579 65.211621 
L 156.122783 62.934842 
L 157.141988 64.233292 
L 158.161192 62.725863 
L 159.180396 63.981647 
L 160.199601 63.110009 
L 161.218805 64.04905 
L 162.23801 63.060179 
" clip-path="url(#p99dd250b8a)" style="fill: none; stroke: #bf00bf; stroke-width: 1.5; stroke-linecap: square"/>
   </g>
   <g id="line2d_42">
    <path d="M 61.33678 19.303051 
L 62.355985 31.783153 
L 63.375189 62.21048 
L 64.394393 70.048563 
L 65.413598 70.376888 
L 66.432802 70.401574 
L 67.452006 71.094902 
L 68.471211 71.106697 
L 69.490415 71.499858 
L 70.509619 71.967598 
L 71.528824 72.001881 
L 72.548028 72.466287 
L 73.567232 72.636282 
L 74.586437 73.51933 
L 75.605641 74.163218 
L 76.624845 74.24434 
L 77.64405 76.112916 
L 78.663254 79.734921 
L 79.682458 80.258122 
L 80.701663 82.933277 
L 81.720867 83.878852 
L 82.740071 85.055227 
L 83.759276 85.930369 
L 84.77848 87.125403 
L 85.797684 87.668766 
L 86.816889 87.996752 
L 87.836093 89.219002 
L 88.855297 88.42018 
L 89.874502 90.001247 
L 90.893706 89.794766 
L 91.91291 88.676901 
L 92.932115 89.902848 
L 93.951319 89.625303 
L 94.970523 89.664255 
L 95.989728 90.765663 
L 97.008932 90.338733 
L 98.028136 91.055203 
L 99.047341 91.338592 
L 100.066545 90.695702 
L 101.085749 90.389647 
L 102.104954 91.010217 
L 103.124158 91.625442 
L 104.143362 91.771147 
L 105.162567 90.759002 
L 106.181771 91.323841 
L 107.200975 91.314037 
L 108.22018 92.587583 
L 109.239384 92.572405 
L 110.258588 92.341865 
L 111.277793 92.183015 
L 112.296997 92.341829 
L 113.316201 90.799241 
L 114.335406 92.648528 
L 115.35461 91.990839 
L 116.373814 92.91009 
L 117.393019 92.833068 
L 118.412223 93.453579 
L 119.431427 93.479575 
L 120.450632 92.462919 
L 121.469836 93.666449 
L 122.48904 93.065438 
L 123.508245 92.921626 
L 124.527449 94.167948 
L 125.546653 93.394009 
L 126.565858 94.339264 
L 127.585062 94.294401 
L 128.604266 95.142305 
L 129.623471 95.168446 
L 130.642675 92.210738 
L 131.661879 94.1918 
L 132.681084 93.030098 
L 133.700288 93.770572 
L 134.719492 93.595975 
L 135.738697 94.776747 
L 136.757901 93.368458 
L 137.777105 94.027789 
L 138.79631 92.387065 
L 139.815514 94.600446 
L 140.834718 95.325792 
L 141.853923 94.801868 
L 142.873127 95.14941 
L 143.892331 94.742654 
L 144.911536 93.875111 
L 145.93074 94.264248 
L 146.949944 94.43377 
L 147.969149 94.370327 
L 148.988353 94.781112 
L 150.007557 95.369929 
L 151.026762 93.876831 
L 152.045966 94.630478 
L 153.06517 95.3233 
L 154.084375 95.545594 
L 155.103579 95.512398 
L 156.122783 95.334789 
L 157.141988 94.881106 
L 158.161192 94.783647 
L 159.180396 94.061061 
L 160.199601 95.321021 
L 161.218805 93.570699 
L 162.23801 93.634371 
" clip-path="url(#p99dd250b8a)" style="fill: none; stroke: #ffa500; stroke-width: 1.5; stroke-linecap: square"/>
   </g>
   <g id="patch_3">
    <path d="M 56.291719 102.2 
L 56.291719 10.8 
" style="fill: none; stroke: #000000; stroke-width: 0.8; stroke-linejoin: miter; stroke-linecap: square"/>
   </g>
   <g id="patch_4">
    <path d="M 56.291719 102.2 
L 167.283071 102.2 
" style="fill: none; stroke: #000000; stroke-width: 0.8; stroke-linejoin: miter; stroke-linecap: square"/>
   </g>
  </g>
  <g id="axes_2">
   <g id="patch_5">
    <path d="M 217.861146 102.2 
L 328.852498 102.2 
L 328.852498 10.8 
L 217.861146 10.8 
z
" style="fill: #ffffff"/>
   </g>
   <g id="matplotlib.axis_3">
    <g id="xtick_4">
     <g id="line2d_43">
      <g>
       <use xlink:href="#m728724a8d7" x="222.906207" y="102.2" style="stroke: #000000; stroke-width: 0.8"/>
      </g>
     </g>
     <g id="text_9">
      <!-- 0.0 -->
      <g transform="translate(214.954645 116.798437) scale(0.1 -0.1)">
       <defs>
        <path id="DejaVuSans-2e" d="M 684 794 
L 1344 794 
L 1344 0 
L 684 0 
L 684 794 
z
" transform="scale(0.015625)"/>
       </defs>
       <use xlink:href="#DejaVuSans-30"/>
       <use xlink:href="#DejaVuSans-2e" x="63.623047"/>
       <use xlink:href="#DejaVuSans-30" x="95.410156"/>
      </g>
     </g>
    </g>
    <g id="xtick_5">
     <g id="line2d_44">
      <g>
       <use xlink:href="#m728724a8d7" x="273.356822" y="102.2" style="stroke: #000000; stroke-width: 0.8"/>
      </g>
     </g>
     <g id="text_10">
      <!-- 0.5 -->
      <g transform="translate(265.405259 116.798437) scale(0.1 -0.1)">
       <use xlink:href="#DejaVuSans-30"/>
       <use xlink:href="#DejaVuSans-2e" x="63.623047"/>
       <use xlink:href="#DejaVuSans-35" x="95.410156"/>
      </g>
     </g>
    </g>
    <g id="xtick_6">
     <g id="line2d_45">
      <g>
       <use xlink:href="#m728724a8d7" x="323.807437" y="102.2" style="stroke: #000000; stroke-width: 0.8"/>
      </g>
     </g>
     <g id="text_11">
      <!-- 1.0 -->
      <g transform="translate(315.855874 116.798437) scale(0.1 -0.1)">
       <use xlink:href="#DejaVuSans-31"/>
       <use xlink:href="#DejaVuSans-2e" x="63.623047"/>
       <use xlink:href="#DejaVuSans-30" x="95.410156"/>
      </g>
     </g>
    </g>
   </g>
   <g id="matplotlib.axis_4">
    <g id="ytick_35">
     <g id="line2d_46">
      <g>
       <use xlink:href="#m18d747a177" x="217.861146" y="94.299081" style="stroke: #000000; stroke-width: 0.8"/>
      </g>
     </g>
     <g id="text_12">
      <!-- 1 -->
      <g transform="translate(204.498646 98.0983) scale(0.1 -0.1)">
       <use xlink:href="#DejaVuSans-31"/>
      </g>
     </g>
    </g>
    <g id="ytick_36">
     <g id="line2d_47">
      <g>
       <use xlink:href="#m18d747a177" x="217.861146" y="60.31433" style="stroke: #000000; stroke-width: 0.8"/>
      </g>
     </g>
     <g id="text_13">
      <!-- 2 -->
      <g transform="translate(204.498646 64.113548) scale(0.1 -0.1)">
       <use xlink:href="#DejaVuSans-32"/>
      </g>
     </g>
    </g>
    <g id="ytick_37">
     <g id="line2d_48">
      <g>
       <use xlink:href="#m18d747a177" x="217.861146" y="26.329578" style="stroke: #000000; stroke-width: 0.8"/>
      </g>
     </g>
     <g id="text_14">
      <!-- 3 -->
      <g transform="translate(204.498646 30.128797) scale(0.1 -0.1)">
       <defs>
        <path id="DejaVuSans-33" d="M 2597 2516 
Q 3050 2419 3304 2112 
Q 3559 1806 3559 1356 
Q 3559 666 3084 287 
Q 2609 -91 1734 -91 
Q 1441 -91 1130 -33 
Q 819 25 488 141 
L 488 750 
Q 750 597 1062 519 
Q 1375 441 1716 441 
Q 2309 441 2620 675 
Q 2931 909 2931 1356 
Q 2931 1769 2642 2001 
Q 2353 2234 1838 2234 
L 1294 2234 
L 1294 2753 
L 1863 2753 
Q 2328 2753 2575 2939 
Q 2822 3125 2822 3475 
Q 2822 3834 2567 4026 
Q 2313 4219 1838 4219 
Q 1578 4219 1281 4162 
Q 984 4106 628 3988 
L 628 4550 
Q 988 4650 1302 4700 
Q 1616 4750 1894 4750 
Q 2613 4750 3031 4423 
Q 3450 4097 3450 3541 
Q 3450 3153 3228 2886 
Q 3006 2619 2597 2516 
z
" transform="scale(0.015625)"/>
       </defs>
       <use xlink:href="#DejaVuSans-33"/>
      </g>
     </g>
    </g>
    <g id="text_15">
     <!--   -->
     <g transform="translate(198.418958 58.089062) rotate(-90) scale(0.1 -0.1)">
      <use xlink:href="#DejaVuSans-20"/>
     </g>
    </g>
   </g>
   <g id="line2d_49">
    <path d="M 222.906207 61.078822 
L 224.924232 61.908609 
L 226.942256 62.797471 
L 228.960281 63.662253 
L 230.978306 64.560742 
L 232.99633 65.436041 
L 235.014355 66.345566 
L 237.032379 67.265454 
L 239.050404 68.189328 
L 241.068429 69.135444 
L 243.086453 70.051515 
L 245.104478 70.968057 
L 247.122502 71.897522 
L 249.140527 72.809947 
L 251.158551 73.712592 
L 253.176576 74.605571 
L 255.194601 75.512706 
L 257.212625 76.386757 
L 259.23065 77.245511 
L 261.248674 78.078644 
L 263.266699 78.907313 
L 265.284724 79.729244 
L 267.302748 80.527232 
L 269.320773 81.313723 
L 271.338797 82.06944 
L 273.356822 82.816661 
L 275.374847 83.509847 
L 277.392871 84.216316 
L 279.410896 84.891615 
L 281.42892 85.528827 
L 283.446945 86.180681 
L 285.464969 86.775639 
L 287.482994 87.34073 
L 289.501019 87.874966 
L 291.519043 88.412314 
L 293.537068 88.944999 
L 295.555092 89.400495 
L 297.573117 89.893157 
L 299.591142 90.307969 
L 301.609166 90.73808 
L 303.627191 91.140479 
L 305.645215 91.516954 
L 307.66324 91.881502 
L 309.681264 92.224015 
L 311.699289 92.528453 
L 313.717314 92.856921 
L 315.735338 93.167659 
L 317.753363 93.453952 
L 319.771387 93.747659 
L 321.789412 94.000083 
L 323.807437 94.253354 
" clip-path="url(#p36d7e2ce2d)" style="fill: none; stroke: #0000ff; stroke-width: 1.5; stroke-linecap: square"/>
   </g>
   <g id="line2d_50">
    <path d="M 222.906207 32.467221 
L 224.924232 32.984353 
L 226.942256 33.573364 
L 228.960281 34.198803 
L 230.978306 34.887605 
L 232.99633 35.611458 
L 235.014355 36.376376 
L 237.032379 37.242389 
L 239.050404 38.119455 
L 241.068429 39.115523 
L 243.086453 40.102606 
L 245.104478 41.221339 
L 247.122502 42.335649 
L 249.140527 43.519382 
L 251.158551 44.817952 
L 253.176576 46.13127 
L 255.194601 47.513978 
L 257.212625 48.919332 
L 259.23065 50.38083 
L 261.248674 51.91231 
L 263.266699 53.433581 
L 265.284724 55.002324 
L 267.302748 56.658098 
L 269.320773 58.257567 
L 271.338797 59.93004 
L 273.356822 61.64933 
L 275.374847 63.315227 
L 277.392871 65.017595 
L 279.410896 66.696222 
L 281.42892 68.365928 
L 283.446945 70.000631 
L 285.464969 71.610588 
L 287.482994 73.246308 
L 289.501019 74.735691 
L 291.519043 76.270225 
L 293.537068 77.781104 
L 295.555092 79.184855 
L 297.573117 80.559128 
L 299.591142 81.875435 
L 301.609166 83.141871 
L 303.627191 84.388654 
L 305.645215 85.558596 
L 307.66324 86.690695 
L 309.681264 87.753739 
L 311.699289 88.745461 
L 313.717314 89.704865 
L 315.735338 90.611436 
L 317.753363 91.436215 
L 319.771387 92.255234 
L 321.789412 92.952568 
L 323.807437 93.661626 
" clip-path="url(#p36d7e2ce2d)" style="fill: none; stroke-dasharray: 5.55,2.4; stroke-dashoffset: 0; stroke: #0000ff; stroke-width: 1.5"/>
   </g>
   <g id="line2d_51">
    <path d="M 222.906207 67.047952 
L 224.924232 67.666091 
L 226.942256 68.270488 
L 228.960281 68.897564 
L 230.978306 69.535384 
L 232.99633 70.190373 
L 235.014355 70.848961 
L 237.032379 71.50865 
L 239.050404 72.173881 
L 241.068429 72.853308 
L 243.086453 73.531268 
L 245.104478 74.221796 
L 247.122502 74.896313 
L 249.140527 75.597139 
L 251.158551 76.303053 
L 253.176576 76.993872 
L 255.194601 77.686037 
L 257.212625 78.380178 
L 259.23065 79.067967 
L 261.248674 79.741333 
L 263.266699 80.430799 
L 265.284724 81.117559 
L 267.302748 81.786129 
L 269.320773 82.430253 
L 271.338797 83.098498 
L 273.356822 83.73631 
L 275.374847 84.364764 
L 277.392871 84.959227 
L 279.410896 85.582803 
L 281.42892 86.150681 
L 283.446945 86.738516 
L 285.464969 87.263411 
L 287.482994 87.808286 
L 289.501019 88.313118 
L 291.519043 88.798431 
L 293.537068 89.282942 
L 295.555092 89.731235 
L 297.573117 90.177461 
L 299.591142 90.575785 
L 301.609166 90.989041 
L 303.627191 91.383455 
L 305.645215 91.712733 
L 307.66324 92.060804 
L 309.681264 92.394088 
L 311.699289 92.720696 
L 313.717314 93.016453 
L 315.735338 93.289316 
L 317.753363 93.562207 
L 319.771387 93.825444 
L 321.789412 94.046033 
L 323.807437 94.27846 
" clip-path="url(#p36d7e2ce2d)" style="fill: none; stroke: #ff0000; stroke-width: 1.5; stroke-linecap: square"/>
   </g>
   <g id="line2d_52">
    <path d="M 222.906207 26.460208 
L 224.924232 27.216383 
L 226.942256 28.009392 
L 228.960281 28.838603 
L 230.978306 29.737441 
L 232.99633 30.698036 
L 235.014355 31.679187 
L 237.032379 32.739501 
L 239.050404 33.863623 
L 241.068429 35.060636 
L 243.086453 36.287166 
L 245.104478 37.566023 
L 247.122502 38.91641 
L 249.140527 40.326505 
L 251.158551 41.811938 
L 253.176576 43.307912 
L 255.194601 44.897098 
L 257.212625 46.503106 
L 259.23065 48.176025 
L 261.248674 49.855985 
L 263.266699 51.584479 
L 265.284724 53.384779 
L 267.302748 55.174391 
L 269.320773 56.957991 
L 271.338797 58.817837 
L 273.356822 60.659719 
L 275.374847 62.506499 
L 277.392871 64.31226 
L 279.410896 66.154401 
L 281.42892 67.916736 
L 283.446945 69.737337 
L 285.464969 71.429617 
L 287.482994 73.143267 
L 289.501019 74.792166 
L 291.519043 76.413455 
L 293.537068 77.981405 
L 295.555092 79.481244 
L 297.573117 80.924908 
L 299.591142 82.257007 
L 301.609166 83.624782 
L 303.627191 84.912714 
L 305.645215 86.118413 
L 307.66324 87.292503 
L 309.681264 88.399095 
L 311.699289 89.478041 
L 313.717314 90.436375 
L 315.735338 91.374178 
L 317.753363 92.282645 
L 319.771387 93.143793 
L 321.789412 93.909128 
L 323.807437 94.68235 
" clip-path="url(#p36d7e2ce2d)" style="fill: none; stroke-dasharray: 5.55,2.4; stroke-dashoffset: 0; stroke: #ff0000; stroke-width: 1.5"/>
   </g>
   <g id="line2d_53">
    <path d="M 222.906207 66.304336 
L 224.924232 66.842012 
L 226.942256 67.43067 
L 228.960281 68.005051 
L 230.978306 68.60666 
L 232.99633 69.205718 
L 235.014355 69.860347 
L 237.032379 70.521997 
L 239.050404 71.188147 
L 241.068429 71.88867 
L 243.086453 72.590751 
L 245.104478 73.296739 
L 247.122502 74.045415 
L 249.140527 74.807849 
L 251.158551 75.549248 
L 253.176576 76.314474 
L 255.194601 77.056019 
L 257.212625 77.806883 
L 259.23065 78.539281 
L 261.248674 79.310542 
L 263.266699 80.047113 
L 265.284724 80.77676 
L 267.302748 81.485482 
L 269.320773 82.208436 
L 271.338797 82.910129 
L 273.356822 83.583005 
L 275.374847 84.256019 
L 277.392871 84.924292 
L 279.410896 85.537935 
L 281.42892 86.15039 
L 283.446945 86.736171 
L 285.464969 87.329791 
L 287.482994 87.88328 
L 289.501019 88.416455 
L 291.519043 88.933619 
L 293.537068 89.423571 
L 295.555092 89.874408 
L 297.573117 90.30579 
L 299.591142 90.738444 
L 301.609166 91.185075 
L 303.627191 91.558087 
L 305.645215 91.953254 
L 307.66324 92.295241 
L 309.681264 92.606113 
L 311.699289 92.951462 
L 313.717314 93.229032 
L 315.735338 93.533354 
L 317.753363 93.831841 
L 319.771387 94.089135 
L 321.789412 94.342758 
L 323.807437 94.597573 
" clip-path="url(#p36d7e2ce2d)" style="fill: none; stroke: #008000; stroke-width: 1.5; stroke-linecap: square"/>
   </g>
   <g id="line2d_54">
    <path d="M 222.906207 27.51502 
L 224.924232 28.338292 
L 226.942256 29.208463 
L 228.960281 30.090811 
L 230.978306 31.039325 
L 232.99633 32.016952 
L 235.014355 33.056102 
L 237.032379 34.148372 
L 239.050404 35.258882 
L 241.068429 36.460051 
L 243.086453 37.639959 
L 245.104478 38.935451 
L 247.122502 40.297465 
L 249.140527 41.675376 
L 251.158551 43.106546 
L 253.176576 44.606677 
L 255.194601 46.115794 
L 257.212625 47.698822 
L 259.23065 49.315857 
L 261.248674 50.976201 
L 263.266699 52.664515 
L 265.284724 54.376285 
L 267.302748 56.120928 
L 269.320773 57.875983 
L 271.338797 59.64559 
L 273.356822 61.470765 
L 275.374847 63.242073 
L 277.392871 65.039043 
L 279.410896 66.797549 
L 281.42892 68.548358 
L 283.446945 70.287694 
L 285.464969 71.995875 
L 287.482994 73.702517 
L 289.501019 75.339946 
L 291.519043 76.945921 
L 293.537068 78.461188 
L 295.555092 79.9494 
L 297.573117 81.371199 
L 299.591142 82.731284 
L 301.609166 84.100554 
L 303.627191 85.389086 
L 305.645215 86.59376 
L 307.66324 87.746641 
L 309.681264 88.807644 
L 311.699289 89.909022 
L 313.717314 90.881285 
L 315.735338 91.794079 
L 317.753363 92.701266 
L 319.771387 93.538669 
L 321.789412 94.328127 
L 323.807437 95.075719 
" clip-path="url(#p36d7e2ce2d)" style="fill: none; stroke-dasharray: 5.55,2.4; stroke-dashoffset: 0; stroke: #008000; stroke-width: 1.5"/>
   </g>
   <g id="line2d_55">
    <path d="M 222.906207 14.954545 
L 224.924232 17.728818 
L 226.942256 20.525348 
L 228.960281 23.363947 
L 230.978306 26.252571 
L 232.99633 29.23687 
L 235.014355 32.19815 
L 237.032379 35.176543 
L 239.050404 38.174682 
L 241.068429 41.040433 
L 243.086453 43.91384 
L 245.104478 46.912951 
L 247.122502 49.699345 
L 249.140527 52.458854 
L 251.158551 55.120525 
L 253.176576 57.68716 
L 255.194601 60.330912 
L 257.212625 62.815443 
L 259.23065 65.141326 
L 261.248674 67.417515 
L 263.266699 69.705429 
L 265.284724 71.812667 
L 267.302748 73.833673 
L 269.320773 75.758538 
L 271.338797 77.638734 
L 273.356822 79.306544 
L 275.374847 81.031955 
L 277.392871 82.520609 
L 279.410896 83.970941 
L 281.42892 85.294861 
L 283.446945 86.591057 
L 285.464969 87.816729 
L 287.482994 88.878145 
L 289.501019 89.914414 
L 291.519043 90.772471 
L 293.537068 91.635641 
L 295.555092 92.412582 
L 297.573117 93.116516 
L 299.591142 93.739986 
L 301.609166 94.315599 
L 303.627191 94.879782 
L 305.645215 95.398344 
L 307.66324 95.776663 
L 309.681264 96.202604 
L 311.699289 96.552944 
L 313.717314 96.914365 
L 315.735338 97.22189 
L 317.753363 97.458373 
L 319.771387 97.639754 
L 321.789412 97.906455 
L 323.807437 98.045455 
" clip-path="url(#p36d7e2ce2d)" style="fill: none; stroke: #bf00bf; stroke-width: 1.5; stroke-linecap: square"/>
   </g>
   <g id="line2d_56">
    <path d="M 222.906207 63.876478 
L 224.924232 63.53642 
L 226.942256 63.191886 
L 228.960281 62.898231 
L 230.978306 62.640625 
L 232.99633 62.448675 
L 235.014355 62.268003 
L 237.032379 62.172113 
L 239.050404 62.110505 
L 241.068429 62.077491 
L 243.086453 62.101345 
L 245.104478 62.207923 
L 247.122502 62.334197 
L 249.140527 62.518973 
L 251.158551 62.781728 
L 253.176576 63.04612 
L 255.194601 63.416226 
L 257.212625 63.827368 
L 259.23065 64.258645 
L 261.248674 64.749407 
L 263.266699 65.353253 
L 265.284724 65.966567 
L 267.302748 66.614426 
L 269.320773 67.330461 
L 271.338797 68.0829 
L 273.356822 68.873017 
L 275.374847 69.75906 
L 277.392871 70.605283 
L 279.410896 71.5474 
L 281.42892 72.489586 
L 283.446945 73.481559 
L 285.464969 74.547216 
L 287.482994 75.563675 
L 289.501019 76.64143 
L 291.519043 77.668442 
L 293.537068 78.774146 
L 295.555092 79.865797 
L 297.573117 80.948717 
L 299.591142 81.991335 
L 301.609166 83.081454 
L 303.627191 84.162713 
L 305.645215 85.259521 
L 307.66324 86.24015 
L 309.681264 87.260004 
L 311.699289 88.257251 
L 313.717314 89.237386 
L 315.735338 90.171283 
L 317.753363 91.031446 
L 319.771387 91.903986 
L 321.789412 92.74549 
L 323.807437 93.551872 
" clip-path="url(#p36d7e2ce2d)" style="fill: none; stroke-dasharray: 5.55,2.4; stroke-dashoffset: 0; stroke: #bf00bf; stroke-width: 1.5"/>
   </g>
   <g id="line2d_57">
    <path d="M 222.906207 68.042671 
L 224.924232 68.573156 
L 226.942256 69.132239 
L 228.960281 69.688969 
L 230.978306 70.25252 
L 232.99633 70.832269 
L 235.014355 71.434572 
L 237.032379 72.035189 
L 239.050404 72.659384 
L 241.068429 73.279274 
L 243.086453 73.899515 
L 245.104478 74.549477 
L 247.122502 75.182999 
L 249.140527 75.827678 
L 251.158551 76.475079 
L 253.176576 77.125207 
L 255.194601 77.763996 
L 257.212625 78.436126 
L 259.23065 79.079367 
L 261.248674 79.715859 
L 263.266699 80.372724 
L 265.284724 81.013615 
L 267.302748 81.645168 
L 269.320773 82.274249 
L 271.338797 82.904011 
L 273.356822 83.508818 
L 275.374847 84.109119 
L 277.392871 84.693968 
L 279.410896 85.280199 
L 281.42892 85.830207 
L 283.446945 86.387553 
L 285.464969 86.906544 
L 287.482994 87.428554 
L 289.501019 87.936793 
L 291.519043 88.426474 
L 293.537068 88.887771 
L 295.555092 89.333446 
L 297.573117 89.772262 
L 299.591142 90.187541 
L 301.609166 90.589174 
L 303.627191 90.968529 
L 305.645215 91.333345 
L 307.66324 91.688048 
L 309.681264 92.016523 
L 311.699289 92.35883 
L 313.717314 92.658577 
L 315.735338 92.966808 
L 317.753363 93.240684 
L 319.771387 93.515192 
L 321.789412 93.774823 
L 323.807437 94.004682 
" clip-path="url(#p36d7e2ce2d)" style="fill: none; stroke: #ffa500; stroke-width: 1.5; stroke-linecap: square"/>
   </g>
   <g id="line2d_58">
    <path d="M 222.906207 24.68232 
L 224.924232 25.484461 
L 226.942256 26.346885 
L 228.960281 27.232158 
L 230.978306 28.183906 
L 232.99633 29.173524 
L 235.014355 30.243699 
L 237.032379 31.360318 
L 239.050404 32.549568 
L 241.068429 33.757195 
L 243.086453 35.070221 
L 245.104478 36.402255 
L 247.122502 37.781852 
L 249.140527 39.268047 
L 251.158551 40.778873 
L 253.176576 42.321721 
L 255.194601 43.9138 
L 257.212625 45.601603 
L 259.23065 47.298692 
L 261.248674 49.005082 
L 263.266699 50.785174 
L 265.284724 52.608842 
L 267.302748 54.429106 
L 269.320773 56.282656 
L 271.338797 58.156867 
L 273.356822 60.023155 
L 275.374847 61.864462 
L 277.392871 63.701628 
L 279.410896 65.536339 
L 281.42892 67.353416 
L 283.446945 69.110366 
L 285.464969 70.847466 
L 287.482994 72.55275 
L 289.501019 74.237515 
L 291.519043 75.867895 
L 293.537068 77.406987 
L 295.555092 78.904655 
L 297.573117 80.349672 
L 299.591142 81.751069 
L 301.609166 83.049068 
L 303.627191 84.321431 
L 305.645215 85.527454 
L 307.66324 86.664422 
L 309.681264 87.75698 
L 311.699289 88.838689 
L 313.717314 89.805029 
L 315.735338 90.728587 
L 317.753363 91.614055 
L 319.771387 92.418185 
L 321.789412 93.191104 
L 323.807437 93.910307 
" clip-path="url(#p36d7e2ce2d)" style="fill: none; stroke-dasharray: 5.55,2.4; stroke-dashoffset: 0; stroke: #ffa500; stroke-width: 1.5"/>
   </g>
   <g id="line2d_59">
    <path d="M 222.906207 67.757682 
L 223.91522 68.053455 
L 224.924232 68.114455 
L 225.933244 68.399861 
L 226.942256 68.523826 
L 227.951269 68.803011 
L 228.960281 68.974924 
L 229.969293 69.250278 
L 230.978306 69.460439 
L 231.987318 69.733545 
L 232.99633 69.975402 
L 234.005343 70.247371 
L 235.014355 70.516251 
L 236.023367 70.787875 
L 237.032379 71.080274 
L 238.041392 71.352115 
L 239.050404 71.665294 
L 240.059416 71.937725 
L 241.068429 72.269455 
L 242.077441 72.542693 
L 243.086453 72.891089 
L 244.095465 73.165211 
L 245.104478 73.528622 
L 246.11349 73.803577 
L 247.122502 74.180506 
L 248.131515 74.456121 
L 249.140527 74.84517 
L 250.149539 75.121159 
L 251.158551 75.520986 
L 252.167564 75.796955 
L 253.176576 76.20625 
L 254.185588 76.481704 
L 255.194601 76.899163 
L 256.203613 77.173511 
L 257.212625 77.597833 
L 258.221638 77.870399 
L 259.23065 78.300271 
L 260.239662 78.570305 
L 261.248674 79.004409 
L 262.257687 79.271098 
L 263.266699 79.708114 
L 264.275711 79.970601 
L 265.284724 80.409213 
L 266.293736 80.666614 
L 267.302748 81.105525 
L 268.31176 81.356945 
L 269.320773 81.794895 
L 270.329785 82.039452 
L 271.338797 82.47523 
L 272.34781 82.712075 
L 273.356822 83.144538 
L 274.365834 83.372877 
L 275.374847 83.800968 
L 276.383859 84.020075 
L 277.392871 84.44284 
L 278.401883 84.652079 
L 279.410896 85.068675 
L 280.419908 85.267511 
L 281.42892 85.677217 
L 282.437933 85.865224 
L 283.446945 86.267449 
L 284.455957 86.444312 
L 285.464969 86.838593 
L 286.473982 87.004115 
L 287.482994 87.390113 
L 288.492006 87.544204 
L 289.501019 87.921702 
L 290.510031 88.064375 
L 291.519043 88.433266 
L 292.528056 88.564629 
L 293.537068 88.924903 
L 294.54608 89.045145 
L 295.555092 89.39688 
L 296.564105 89.506261 
L 297.573117 89.849609 
L 298.582129 89.948446 
L 299.591142 90.283618 
L 300.600154 90.372275 
L 301.609166 90.699532 
L 302.618178 90.778406 
L 303.627191 91.098046 
L 304.636203 91.167561 
L 305.645215 91.479909 
L 306.654228 91.540503 
L 307.66324 91.845906 
L 308.672252 91.898026 
L 309.681264 92.196839 
L 310.690277 92.240936 
L 311.699289 92.533523 
L 312.708301 92.570044 
L 313.717314 92.85677 
L 314.726326 92.886158 
L 315.735338 93.167385 
L 316.744351 93.190072 
L 317.753363 93.466158 
L 318.762375 93.482567 
L 319.771387 93.753864 
L 320.7804 93.764408 
L 321.789412 94.03126 
L 322.798424 94.036338 
L 323.807437 94.299081 
" clip-path="url(#p36d7e2ce2d)" style="fill: none; stroke: #000000; stroke-width: 1.5; stroke-linecap: square"/>
   </g>
   <g id="line2d_60">
    <path d="M 222.906207 29.297041 
L 223.91522 29.443818 
L 224.924232 29.755213 
L 225.933244 29.900721 
L 226.942256 30.363487 
L 227.951269 30.511391 
L 228.960281 31.080663 
L 229.969293 31.233983 
L 230.978306 31.886867 
L 231.987318 32.048155 
L 232.99633 32.770669 
L 234.005343 32.942106 
L 235.014355 33.724845 
L 236.023367 33.908309 
L 237.032379 34.74453 
L 238.041392 34.941644 
L 239.050404 35.826268 
L 240.059416 36.038433 
L 241.068429 36.967471 
L 242.077441 37.195883 
L 243.086453 38.166077 
L 244.095465 38.411735 
L 245.104478 39.420317 
L 246.11349 39.684025 
L 247.122502 40.728552 
L 248.131515 41.010914 
L 249.140527 42.089142 
L 250.149539 42.390554 
L 251.158551 43.500347 
L 252.167564 43.820987 
L 253.176576 44.960238 
L 254.185588 45.300051 
L 255.194601 46.466628 
L 256.203613 46.825313 
L 257.212625 48.017005 
L 258.221638 48.394 
L 259.23065 49.608484 
L 260.239662 50.002953 
L 261.248674 51.237758 
L 262.257687 51.648582 
L 263.266699 52.901071 
L 264.275711 53.326844 
L 265.284724 54.594199 
L 266.293736 55.033224 
L 267.302748 56.312443 
L 268.31176 56.762744 
L 269.320773 58.050651 
L 270.329785 58.509988 
L 271.338797 59.803249 
L 272.34781 60.269143 
L 273.356822 61.564298 
L 274.365834 62.034072 
L 275.374847 63.327573 
L 276.383859 63.798397 
L 277.392871 65.086662 
L 278.401883 65.555607 
L 279.410896 66.835074 
L 280.419908 67.299176 
L 281.42892 68.566366 
L 282.437933 69.022691 
L 283.446945 70.274273 
L 284.455957 70.719977 
L 285.464969 71.952824 
L 286.473982 72.385223 
L 287.482994 73.596467 
L 288.492006 74.013081 
L 289.501019 75.200155 
L 290.510031 75.598756 
L 291.519043 76.759427 
L 292.528056 77.138071 
L 293.537068 78.270457 
L 294.54608 78.6275 
L 295.555092 79.730078 
L 296.564105 80.064182 
L 297.573117 81.13578 
L 298.582129 81.445911 
L 299.591142 82.485693 
L 300.600154 82.771106 
L 301.609166 83.778547 
L 302.618178 84.038764 
L 303.627191 85.013622 
L 304.636203 85.248405 
L 305.645215 86.190689 
L 306.654228 86.400011 
L 307.66324 87.309944 
L 308.672252 87.493962 
L 309.681264 88.371947 
L 310.690277 88.53097 
L 311.699289 89.377559 
L 312.708301 89.512017 
L 313.717314 90.327879 
L 314.726326 90.4383 
L 315.735338 91.224194 
L 316.744351 91.311179 
L 317.753363 92.067929 
L 318.762375 92.132129 
L 319.771387 92.860602 
L 320.7804 92.902701 
L 321.789412 93.603786 
L 322.798424 93.624485 
L 323.807437 94.299081 
" clip-path="url(#p36d7e2ce2d)" style="fill: none; stroke-dasharray: 5.55,2.4; stroke-dashoffset: 0; stroke: #000000; stroke-width: 1.5"/>
   </g>
   <g id="patch_6">
    <path d="M 217.861146 102.2 
L 217.861146 10.8 
" style="fill: none; stroke: #000000; stroke-width: 0.8; stroke-linejoin: miter; stroke-linecap: square"/>
   </g>
   <g id="patch_7">
    <path d="M 217.861146 102.2 
L 328.852498 102.2 
" style="fill: none; stroke: #000000; stroke-width: 0.8; stroke-linejoin: miter; stroke-linecap: square"/>
   </g>
  </g>
  <g id="axes_3">
   <g id="patch_8">
    <path d="M 379.430573 102.2 
L 490.421925 102.2 
L 490.421925 10.8 
L 379.430573 10.8 
z
" style="fill: #ffffff"/>
   </g>
   <g id="matplotlib.axis_5">
    <g id="xtick_7">
     <g id="line2d_61">
      <g>
       <use xlink:href="#m728724a8d7" x="384.475634" y="102.2" style="stroke: #000000; stroke-width: 0.8"/>
      </g>
     </g>
     <g id="text_16">
      <!-- 0.0 -->
      <g transform="translate(376.524072 116.798437) scale(0.1 -0.1)">
       <use xlink:href="#DejaVuSans-30"/>
       <use xlink:href="#DejaVuSans-2e" x="63.623047"/>
       <use xlink:href="#DejaVuSans-30" x="95.410156"/>
      </g>
     </g>
    </g>
    <g id="xtick_8">
     <g id="line2d_62">
      <g>
       <use xlink:href="#m728724a8d7" x="434.926249" y="102.2" style="stroke: #000000; stroke-width: 0.8"/>
      </g>
     </g>
     <g id="text_17">
      <!-- 0.5 -->
      <g transform="translate(426.974687 116.798437) scale(0.1 -0.1)">
       <use xlink:href="#DejaVuSans-30"/>
       <use xlink:href="#DejaVuSans-2e" x="63.623047"/>
       <use xlink:href="#DejaVuSans-35" x="95.410156"/>
      </g>
     </g>
    </g>
    <g id="xtick_9">
     <g id="line2d_63">
      <g>
       <use xlink:href="#m728724a8d7" x="485.376864" y="102.2" style="stroke: #000000; stroke-width: 0.8"/>
      </g>
     </g>
     <g id="text_18">
      <!-- 1.0 -->
      <g transform="translate(477.425301 116.798437) scale(0.1 -0.1)">
       <use xlink:href="#DejaVuSans-31"/>
       <use xlink:href="#DejaVuSans-2e" x="63.623047"/>
       <use xlink:href="#DejaVuSans-30" x="95.410156"/>
      </g>
     </g>
    </g>
   </g>
   <g id="matplotlib.axis_6">
    <g id="ytick_38">
     <g id="line2d_64">
      <g>
       <use xlink:href="#m18d747a177" x="379.430573" y="91.264573" style="stroke: #000000; stroke-width: 0.8"/>
      </g>
     </g>
     <g id="text_19">
      <!-- 1.4 -->
      <g transform="translate(356.527448 95.063792) scale(0.1 -0.1)">
       <defs>
        <path id="DejaVuSans-34" d="M 2419 4116 
L 825 1625 
L 2419 1625 
L 2419 4116 
z
M 2253 4666 
L 3047 4666 
L 3047 1625 
L 3713 1625 
L 3713 1100 
L 3047 1100 
L 3047 0 
L 2419 0 
L 2419 1100 
L 313 1100 
L 313 1709 
L 2253 4666 
z
" transform="scale(0.015625)"/>
       </defs>
       <use xlink:href="#DejaVuSans-31"/>
       <use xlink:href="#DejaVuSans-2e" x="63.623047"/>
       <use xlink:href="#DejaVuSans-34" x="95.410156"/>
      </g>
     </g>
    </g>
    <g id="ytick_39">
     <g id="line2d_65">
      <g>
       <use xlink:href="#m18d747a177" x="379.430573" y="66.540629" style="stroke: #000000; stroke-width: 0.8"/>
      </g>
     </g>
     <g id="text_20">
      <!-- 1.6 -->
      <g transform="translate(356.527448 70.339848) scale(0.1 -0.1)">
       <defs>
        <path id="DejaVuSans-36" d="M 2113 2584 
Q 1688 2584 1439 2293 
Q 1191 2003 1191 1497 
Q 1191 994 1439 701 
Q 1688 409 2113 409 
Q 2538 409 2786 701 
Q 3034 994 3034 1497 
Q 3034 2003 2786 2293 
Q 2538 2584 2113 2584 
z
M 3366 4563 
L 3366 3988 
Q 3128 4100 2886 4159 
Q 2644 4219 2406 4219 
Q 1781 4219 1451 3797 
Q 1122 3375 1075 2522 
Q 1259 2794 1537 2939 
Q 1816 3084 2150 3084 
Q 2853 3084 3261 2657 
Q 3669 2231 3669 1497 
Q 3669 778 3244 343 
Q 2819 -91 2113 -91 
Q 1303 -91 875 529 
Q 447 1150 447 2328 
Q 447 3434 972 4092 
Q 1497 4750 2381 4750 
Q 2619 4750 2861 4703 
Q 3103 4656 3366 4563 
z
" transform="scale(0.015625)"/>
       </defs>
       <use xlink:href="#DejaVuSans-31"/>
       <use xlink:href="#DejaVuSans-2e" x="63.623047"/>
       <use xlink:href="#DejaVuSans-36" x="95.410156"/>
      </g>
     </g>
    </g>
    <g id="ytick_40">
     <g id="line2d_66">
      <g>
       <use xlink:href="#m18d747a177" x="379.430573" y="41.816685" style="stroke: #000000; stroke-width: 0.8"/>
      </g>
     </g>
     <g id="text_21">
      <!-- 1.8 -->
      <g transform="translate(356.527448 45.615903) scale(0.1 -0.1)">
       <defs>
        <path id="DejaVuSans-38" d="M 2034 2216 
Q 1584 2216 1326 1975 
Q 1069 1734 1069 1313 
Q 1069 891 1326 650 
Q 1584 409 2034 409 
Q 2484 409 2743 651 
Q 3003 894 3003 1313 
Q 3003 1734 2745 1975 
Q 2488 2216 2034 2216 
z
M 1403 2484 
Q 997 2584 770 2862 
Q 544 3141 544 3541 
Q 544 4100 942 4425 
Q 1341 4750 2034 4750 
Q 2731 4750 3128 4425 
Q 3525 4100 3525 3541 
Q 3525 3141 3298 2862 
Q 3072 2584 2669 2484 
Q 3125 2378 3379 2068 
Q 3634 1759 3634 1313 
Q 3634 634 3220 271 
Q 2806 -91 2034 -91 
Q 1263 -91 848 271 
Q 434 634 434 1313 
Q 434 1759 690 2068 
Q 947 2378 1403 2484 
z
M 1172 3481 
Q 1172 3119 1398 2916 
Q 1625 2713 2034 2713 
Q 2441 2713 2670 2916 
Q 2900 3119 2900 3481 
Q 2900 3844 2670 4047 
Q 2441 4250 2034 4250 
Q 1625 4250 1398 4047 
Q 1172 3844 1172 3481 
z
" transform="scale(0.015625)"/>
       </defs>
       <use xlink:href="#DejaVuSans-31"/>
       <use xlink:href="#DejaVuSans-2e" x="63.623047"/>
       <use xlink:href="#DejaVuSans-38" x="95.410156"/>
      </g>
     </g>
    </g>
    <g id="ytick_41">
     <g id="line2d_67">
      <g>
       <use xlink:href="#m18d747a177" x="379.430573" y="17.09274" style="stroke: #000000; stroke-width: 0.8"/>
      </g>
     </g>
     <g id="text_22">
      <!-- 2.0 -->
      <g transform="translate(356.527448 20.891959) scale(0.1 -0.1)">
       <use xlink:href="#DejaVuSans-32"/>
       <use xlink:href="#DejaVuSans-2e" x="63.623047"/>
       <use xlink:href="#DejaVuSans-30" x="95.410156"/>
      </g>
     </g>
    </g>
    <g id="text_23">
     <!--   -->
     <g transform="translate(350.44776 58.089062) rotate(-90) scale(0.1 -0.1)">
      <use xlink:href="#DejaVuSans-20"/>
     </g>
    </g>
   </g>
   <g id="line2d_68">
    <path d="M 384.475634 60.929614 
L 386.493659 58.800025 
L 388.511684 58.303755 
L 390.529708 59.051889 
L 392.547733 60.586943 
L 394.565757 62.528154 
L 396.583782 64.621506 
L 398.601806 66.779669 
L 400.619831 68.868481 
L 402.637856 70.860799 
L 404.65588 72.71941 
L 406.673905 74.459363 
L 408.691929 76.060615 
L 410.709954 77.538064 
L 412.727979 78.878197 
L 414.746003 80.116928 
L 416.764028 81.245679 
L 418.782052 82.262594 
L 420.800077 83.182012 
L 422.818102 84.008 
L 424.836126 84.752965 
L 426.854151 85.454119 
L 428.872175 86.073528 
L 430.8902 86.608276 
L 432.908224 87.097989 
L 434.926249 87.53123 
L 436.944274 87.948454 
L 438.962298 88.302604 
L 440.980323 88.648414 
L 442.998347 88.934835 
L 445.016372 89.189203 
L 447.034397 89.422292 
L 449.052421 89.62246 
L 451.070446 89.808362 
L 453.08847 89.963288 
L 455.106495 90.088874 
L 457.124519 90.241575 
L 459.142544 90.356417 
L 461.160569 90.470184 
L 463.178593 90.575963 
L 465.196618 90.692913 
L 467.214642 90.783823 
L 469.232667 90.88726 
L 471.250692 90.981073 
L 473.268716 91.065971 
L 475.286741 91.16702 
L 477.304765 91.27137 
L 479.32279 91.363046 
L 481.340814 91.472245 
L 483.358839 91.57294 
L 485.376864 91.680723 
" clip-path="url(#pf86c2fe81b)" style="fill: none; stroke: #0000ff; stroke-width: 1.5; stroke-linecap: square"/>
   </g>
   <g id="line2d_69">
    <path d="M 384.475634 60.280687 
L 386.493659 51.765942 
L 388.511684 45.520475 
L 390.529708 41.007974 
L 392.547733 37.723285 
L 394.565757 35.302206 
L 396.583782 33.462369 
L 398.601806 32.092202 
L 400.619831 31.029721 
L 402.637856 30.215287 
L 404.65588 29.61558 
L 406.673905 29.138792 
L 408.691929 28.769522 
L 410.709954 28.503202 
L 412.727979 28.302415 
L 414.746003 28.144262 
L 416.764028 28.032175 
L 418.782052 27.968424 
L 420.800077 27.91496 
L 422.818102 27.88895 
L 424.836126 27.865283 
L 426.854151 27.866432 
L 428.872175 27.857266 
L 430.8902 27.834144 
L 432.908224 27.803389 
L 434.926249 27.788638 
L 436.944274 27.781048 
L 438.962298 27.731017 
L 440.980323 27.699201 
L 442.998347 27.636187 
L 445.016372 27.543361 
L 447.034397 27.434502 
L 449.052421 27.3252 
L 451.070446 27.199998 
L 453.08847 27.05863 
L 455.106495 26.883175 
L 457.124519 26.719702 
L 459.142544 26.534787 
L 461.160569 26.374556 
L 463.178593 26.180828 
L 465.196618 25.999553 
L 467.214642 25.783824 
L 469.232667 25.564941 
L 471.250692 25.368163 
L 473.268716 25.149368 
L 475.286741 24.939018 
L 477.304765 24.750433 
L 479.32279 24.527777 
L 481.340814 24.331206 
L 483.358839 24.117539 
L 485.376864 23.932035 
" clip-path="url(#pf86c2fe81b)" style="fill: none; stroke-dasharray: 5.55,2.4; stroke-dashoffset: 0; stroke: #0000ff; stroke-width: 1.5"/>
   </g>
   <g id="line2d_70">
    <path d="M 384.475634 59.039392 
L 386.493659 63.590325 
L 388.511684 68.738283 
L 390.529708 73.049673 
L 392.547733 76.228715 
L 394.565757 78.549571 
L 396.583782 80.291719 
L 398.601806 81.637452 
L 400.619831 82.767825 
L 402.637856 83.743345 
L 404.65588 84.613675 
L 406.673905 85.41542 
L 408.691929 86.151338 
L 410.709954 86.852079 
L 412.727979 87.516523 
L 414.746003 88.138173 
L 416.764028 88.750966 
L 418.782052 89.344645 
L 420.800077 89.89886 
L 422.818102 90.43069 
L 424.836126 90.9446 
L 426.854151 91.439691 
L 428.872175 91.886491 
L 430.8902 92.340968 
L 432.908224 92.759223 
L 434.926249 93.182518 
L 436.944274 93.560365 
L 438.962298 93.909858 
L 440.980323 94.253516 
L 442.998347 94.604189 
L 445.016372 94.902532 
L 447.034397 95.18742 
L 449.052421 95.443808 
L 451.070446 95.702583 
L 453.08847 95.974974 
L 455.106495 96.202965 
L 457.124519 96.404223 
L 459.142544 96.594384 
L 461.160569 96.779741 
L 463.178593 96.922112 
L 465.196618 97.081856 
L 467.214642 97.236237 
L 469.232667 97.352288 
L 471.250692 97.47192 
L 473.268716 97.56003 
L 475.286741 97.695445 
L 477.304765 97.800591 
L 479.32279 97.870914 
L 481.340814 97.947353 
L 483.358839 98.001333 
L 485.376864 98.045455 
" clip-path="url(#pf86c2fe81b)" style="fill: none; stroke: #ff0000; stroke-width: 1.5; stroke-linecap: square"/>
   </g>
   <g id="line2d_71">
    <path d="M 384.475634 59.280719 
L 386.493659 50.377576 
L 388.511684 44.972552 
L 390.529708 41.680701 
L 392.547733 39.334882 
L 394.565757 37.476742 
L 396.583782 35.818106 
L 398.601806 34.317431 
L 400.619831 32.950492 
L 402.637856 31.70569 
L 404.65588 30.573829 
L 406.673905 29.511555 
L 408.691929 28.514003 
L 410.709954 27.604356 
L 412.727979 26.748778 
L 414.746003 25.930188 
L 416.764028 25.204188 
L 418.782052 24.541306 
L 420.800077 23.892497 
L 422.818102 23.317429 
L 424.836126 22.778143 
L 426.854151 22.298097 
L 428.872175 21.809991 
L 430.8902 21.411439 
L 432.908224 21.012372 
L 434.926249 20.701886 
L 436.944274 20.378535 
L 438.962298 20.073443 
L 440.980323 19.836272 
L 442.998347 19.638152 
L 445.016372 19.428568 
L 447.034397 19.251552 
L 449.052421 19.06702 
L 451.070446 18.92154 
L 453.08847 18.868827 
L 455.106495 18.778344 
L 457.124519 18.677443 
L 459.142544 18.587564 
L 461.160569 18.541173 
L 463.178593 18.469966 
L 465.196618 18.413525 
L 467.214642 18.405007 
L 469.232667 18.341109 
L 471.250692 18.305903 
L 473.268716 18.256049 
L 475.286741 18.289531 
L 477.304765 18.295661 
L 479.32279 18.266276 
L 481.340814 18.253072 
L 483.358839 18.212959 
L 485.376864 18.177135 
" clip-path="url(#pf86c2fe81b)" style="fill: none; stroke-dasharray: 5.55,2.4; stroke-dashoffset: 0; stroke: #ff0000; stroke-width: 1.5"/>
   </g>
   <g id="line2d_72">
    <path d="M 384.475634 59.038257 
L 386.493659 60.849255 
L 388.511684 63.863351 
L 390.529708 67.198793 
L 392.547733 70.384393 
L 394.565757 73.255175 
L 396.583782 75.766221 
L 398.601806 77.939651 
L 400.619831 79.823846 
L 402.637856 81.439775 
L 404.65588 82.820906 
L 406.673905 84.045711 
L 408.691929 85.091789 
L 410.709954 86.04264 
L 412.727979 86.860611 
L 414.746003 87.592063 
L 416.764028 88.237395 
L 418.782052 88.835112 
L 420.800077 89.365409 
L 422.818102 89.848431 
L 424.836126 90.288643 
L 426.854151 90.709875 
L 428.872175 91.102694 
L 430.8902 91.461133 
L 432.908224 91.775274 
L 434.926249 92.089002 
L 436.944274 92.403407 
L 438.962298 92.680706 
L 440.980323 92.957932 
L 442.998347 93.212359 
L 445.016372 93.463707 
L 447.034397 93.66215 
L 449.052421 93.894061 
L 451.070446 94.111426 
L 453.08847 94.326182 
L 455.106495 94.534411 
L 457.124519 94.73365 
L 459.142544 94.921881 
L 461.160569 95.106796 
L 463.178593 95.295867 
L 465.196618 95.469744 
L 467.214642 95.63895 
L 469.232667 95.818191 
L 471.250692 95.981134 
L 473.268716 96.137077 
L 475.286741 96.281334 
L 477.304765 96.436201 
L 479.32279 96.58118 
L 481.340814 96.738434 
L 483.358839 96.884489 
L 485.376864 97.034685 
" clip-path="url(#pf86c2fe81b)" style="fill: none; stroke: #008000; stroke-width: 1.5; stroke-linecap: square"/>
   </g>
   <g id="line2d_73">
    <path d="M 384.475634 58.604853 
L 386.493659 52.028401 
L 388.511684 48.298018 
L 390.529708 46.021917 
L 392.547733 44.337522 
L 394.565757 42.806417 
L 396.583782 41.239781 
L 398.601806 39.591697 
L 400.619831 37.923747 
L 402.637856 36.224748 
L 404.65588 34.56651 
L 406.673905 32.981292 
L 408.691929 31.483977 
L 410.709954 30.102095 
L 412.727979 28.809075 
L 414.746003 27.639061 
L 416.764028 26.565483 
L 418.782052 25.615988 
L 420.800077 24.752054 
L 422.818102 23.987312 
L 424.836126 23.307851 
L 426.854151 22.719093 
L 428.872175 22.181369 
L 430.8902 21.734849 
L 432.908224 21.31742 
L 434.926249 20.982 
L 436.944274 20.669126 
L 438.962298 20.435079 
L 440.980323 20.22884 
L 442.998347 20.029262 
L 445.016372 19.889014 
L 447.034397 19.778681 
L 449.052421 19.737507 
L 451.070446 19.651843 
L 453.08847 19.617226 
L 455.106495 19.600766 
L 457.124519 19.601355 
L 459.142544 19.615355 
L 461.160569 19.661451 
L 463.178593 19.72249 
L 465.196618 19.793624 
L 467.214642 19.875324 
L 469.232667 20.022086 
L 471.250692 20.157869 
L 473.268716 20.314401 
L 475.286741 20.449094 
L 477.304765 20.586867 
L 479.32279 20.744077 
L 481.340814 20.921992 
L 483.358839 21.100968 
L 485.376864 21.293812 
" clip-path="url(#pf86c2fe81b)" style="fill: none; stroke-dasharray: 5.55,2.4; stroke-dashoffset: 0; stroke: #008000; stroke-width: 1.5"/>
   </g>
   <g id="line2d_74">
    <path d="M 384.475634 64.778716 
L 386.493659 59.983228 
L 388.511684 56.37927 
L 390.529708 53.820418 
L 392.547733 52.08888 
L 394.565757 51.037143 
L 396.583782 50.541491 
L 398.601806 50.510132 
L 400.619831 50.838154 
L 402.637856 51.445686 
L 404.65588 52.234493 
L 406.673905 53.221508 
L 408.691929 54.303337 
L 410.709954 55.475061 
L 412.727979 56.635982 
L 414.746003 57.842926 
L 416.764028 59.032466 
L 418.782052 60.202391 
L 420.800077 61.331231 
L 422.818102 62.410335 
L 424.836126 63.4186 
L 426.854151 64.379471 
L 428.872175 65.268782 
L 430.8902 66.058341 
L 432.908224 66.79694 
L 434.926249 67.429259 
L 436.944274 67.961059 
L 438.962298 68.425882 
L 440.980323 68.752445 
L 442.998347 69.059247 
L 445.016372 69.197373 
L 447.034397 69.235659 
L 449.052421 69.252783 
L 451.070446 69.139296 
L 453.08847 68.921725 
L 455.106495 68.620936 
L 457.124519 68.252608 
L 459.142544 67.758858 
L 461.160569 67.197304 
L 463.178593 66.544369 
L 465.196618 65.827919 
L 467.214642 64.989553 
L 469.232667 64.098135 
L 471.250692 63.069887 
L 473.268716 61.998712 
L 475.286741 60.872244 
L 477.304765 59.632173 
L 479.32279 58.35548 
L 481.340814 57.024292 
L 483.358839 55.543557 
L 485.376864 54.051415 
" clip-path="url(#pf86c2fe81b)" style="fill: none; stroke: #bf00bf; stroke-width: 1.5; stroke-linecap: square"/>
   </g>
   <g id="line2d_75">
    <path d="M 384.475634 63.09936 
L 386.493659 58.820907 
L 388.511684 55.36262 
L 390.529708 52.655813 
L 392.547733 50.521435 
L 394.565757 48.906817 
L 396.583782 47.72889 
L 398.601806 46.904508 
L 400.619831 46.363512 
L 402.637856 46.074218 
L 404.65588 45.965904 
L 406.673905 46.028505 
L 408.691929 46.208542 
L 410.709954 46.506192 
L 412.727979 46.861389 
L 414.746003 47.279894 
L 416.764028 47.760382 
L 418.782052 48.271993 
L 420.800077 48.819134 
L 422.818102 49.376105 
L 424.836126 49.917793 
L 426.854151 50.495778 
L 428.872175 51.066852 
L 430.8902 51.638515 
L 432.908224 52.222733 
L 434.926249 52.771333 
L 436.944274 53.308557 
L 438.962298 53.847755 
L 440.980323 54.348446 
L 442.998347 54.899227 
L 445.016372 55.36542 
L 447.034397 55.817068 
L 449.052421 56.304865 
L 451.070446 56.745667 
L 453.08847 57.161888 
L 455.106495 57.567543 
L 457.124519 57.983616 
L 459.142544 58.357838 
L 461.160569 58.713654 
L 463.178593 59.072299 
L 465.196618 59.421852 
L 467.214642 59.738866 
L 469.232667 60.059697 
L 471.250692 60.362858 
L 473.268716 60.627395 
L 475.286741 60.925532 
L 477.304765 61.172577 
L 479.32279 61.425737 
L 481.340814 61.681786 
L 483.358839 61.901273 
L 485.376864 62.129219 
" clip-path="url(#pf86c2fe81b)" style="fill: none; stroke-dasharray: 5.55,2.4; stroke-dashoffset: 0; stroke: #bf00bf; stroke-width: 1.5"/>
   </g>
   <g id="line2d_76">
    <path d="M 384.475634 59.470158 
L 386.493659 60.253778 
L 388.511684 63.178363 
L 390.529708 66.840442 
L 392.547733 70.51213 
L 394.565757 73.849517 
L 396.583782 76.774059 
L 398.601806 79.301403 
L 400.619831 81.464046 
L 402.637856 83.334359 
L 404.65588 84.942331 
L 406.673905 86.365063 
L 408.691929 87.608111 
L 410.709954 88.688733 
L 412.727979 89.649487 
L 414.746003 90.500085 
L 416.764028 91.261968 
L 418.782052 91.934606 
L 420.800077 92.534917 
L 422.818102 93.057757 
L 424.836126 93.547853 
L 426.854151 93.979415 
L 428.872175 94.365441 
L 430.8902 94.711353 
L 432.908224 95.02486 
L 434.926249 95.307936 
L 436.944274 95.568479 
L 438.962298 95.779021 
L 440.980323 95.98386 
L 442.998347 96.161746 
L 445.016372 96.338733 
L 447.034397 96.504623 
L 449.052421 96.648055 
L 451.070446 96.783661 
L 453.08847 96.900154 
L 455.106495 97.01227 
L 457.124519 97.113319 
L 459.142544 97.207339 
L 461.160569 97.278178 
L 463.178593 97.357623 
L 465.196618 97.431085 
L 467.214642 97.503943 
L 469.232667 97.571761 
L 471.250692 97.634745 
L 473.268716 97.693912 
L 475.286741 97.748055 
L 477.304765 97.794578 
L 479.32279 97.843637 
L 481.340814 97.889674 
L 483.358839 97.925572 
L 485.376864 97.971536 
" clip-path="url(#pf86c2fe81b)" style="fill: none; stroke: #ffa500; stroke-width: 1.5; stroke-linecap: square"/>
   </g>
   <g id="line2d_77">
    <path d="M 384.475634 59.422544 
L 386.493659 51.073763 
L 388.511684 45.876821 
L 390.529708 42.342994 
L 392.547733 39.666397 
L 394.565757 37.48968 
L 396.583782 35.582423 
L 398.601806 33.952744 
L 400.619831 32.494571 
L 402.637856 31.230743 
L 404.65588 30.121562 
L 406.673905 29.124571 
L 408.691929 28.262656 
L 410.709954 27.463179 
L 412.727979 26.757281 
L 414.746003 26.116724 
L 416.764028 25.55072 
L 418.782052 25.008191 
L 420.800077 24.520203 
L 422.818102 24.053995 
L 424.836126 23.619339 
L 426.854151 23.221715 
L 428.872175 22.844413 
L 430.8902 22.469646 
L 432.908224 22.115643 
L 434.926249 21.773061 
L 436.944274 21.449755 
L 438.962298 21.104608 
L 440.980323 20.801756 
L 442.998347 20.472879 
L 445.016372 20.187327 
L 447.034397 19.913948 
L 449.052421 19.628249 
L 451.070446 19.356889 
L 453.08847 19.072193 
L 455.106495 18.80123 
L 457.124519 18.528264 
L 459.142544 18.251997 
L 461.160569 17.969407 
L 463.178593 17.700317 
L 465.196618 17.443133 
L 467.214642 17.200642 
L 469.232667 16.931905 
L 471.250692 16.68598 
L 473.268716 16.435104 
L 475.286741 16.182577 
L 477.304765 15.931112 
L 479.32279 15.685924 
L 481.340814 15.440117 
L 483.358839 15.178689 
L 485.376864 14.954545 
" clip-path="url(#pf86c2fe81b)" style="fill: none; stroke-dasharray: 5.55,2.4; stroke-dashoffset: 0; stroke: #ffa500; stroke-width: 1.5"/>
   </g>
   <g id="line2d_78">
    <path d="M 384.475634 58.505347 
L 384.718806 61.569515 
L 385.131492 63.983321 
L 385.704611 66.034684 
L 386.479533 67.973274 
L 387.58541 70.114428 
L 389.286605 72.890846 
L 391.622468 76.27438 
L 394.014837 79.360178 
L 396.316898 81.973333 
L 398.577086 84.207093 
L 400.845345 86.139096 
L 403.16456 87.823893 
L 405.575595 89.300796 
L 408.121837 90.598897 
L 410.852729 91.739708 
L 413.829315 92.739394 
L 417.129795 93.609603 
L 420.861627 94.358892 
L 425.17919 94.99315 
L 430.321117 95.516488 
L 436.688994 95.931823 
L 445.041597 96.241442 
L 457.100808 96.447977 
L 478.258786 96.556253 
L 485.376864 96.567439 
L 485.376864 96.567439 
" clip-path="url(#pf86c2fe81b)" style="fill: none; stroke: #000000; stroke-width: 1.5; stroke-linecap: square"/>
   </g>
   <g id="line2d_79">
    <path d="M 384.475634 58.505347 
L 384.680464 60.871657 
L 384.880753 61.219802 
L 385.028069 61.119354 
L 385.280322 60.60187 
L 385.785837 58.960233 
L 388.912261 47.964887 
L 390.274933 44.303927 
L 391.644162 41.248145 
L 393.05123 38.641813 
L 394.523379 36.376777 
L 396.084825 34.378846 
L 397.761299 32.59334 
L 399.580044 30.981166 
L 401.569816 29.515591 
L 403.760886 28.179817 
L 406.184029 26.965504 
L 408.873552 25.869392 
L 411.873345 24.890424 
L 415.244455 24.028247 
L 419.078702 23.281953 
L 423.51987 22.649879 
L 428.802553 22.129842 
L 435.335908 21.719359 
L 443.912008 21.415781 
L 456.36776 21.215815 
L 478.648265 21.113853 
L 485.376864 21.104765 
L 485.376864 21.104765 
" clip-path="url(#pf86c2fe81b)" style="fill: none; stroke-dasharray: 5.55,2.4; stroke-dashoffset: 0; stroke: #000000; stroke-width: 1.5"/>
   </g>
   <g id="patch_9">
    <path d="M 379.430573 102.2 
L 379.430573 10.8 
" style="fill: none; stroke: #000000; stroke-width: 0.8; stroke-linejoin: miter; stroke-linecap: square"/>
   </g>
   <g id="patch_10">
    <path d="M 379.430573 102.2 
L 490.421925 102.2 
" style="fill: none; stroke: #000000; stroke-width: 0.8; stroke-linejoin: miter; stroke-linecap: square"/>
   </g>
  </g>
 </g>
 <defs>
  <clipPath id="p99dd250b8a">
   <rect x="56.291719" y="10.8" width="110.991352" height="91.4"/>
  </clipPath>
  <clipPath id="p36d7e2ce2d">
   <rect x="217.861146" y="10.8" width="110.991352" height="91.4"/>
  </clipPath>
  <clipPath id="pf86c2fe81b">
   <rect x="379.430573" y="10.8" width="110.991352" height="91.4"/>
  </clipPath>
 </defs>
</svg>
